<mxfile host="app.diagrams.net" agent="Mozilla/5.0 (X11; Linux x86_64) AppleWebKit/537.36 (KHTML, like Gecko) Chrome/128.0.0.0 Safari/537.36" version="24.7.14">
  <diagram name="PÃ¡gina-1" id="VAqHc9G3c2qmCrzL8BHz">
    <mxGraphModel dx="2191" dy="1962" grid="1" gridSize="10" guides="1" tooltips="1" connect="1" arrows="1" fold="1" page="1" pageScale="1" pageWidth="827" pageHeight="1169" math="0" shadow="0">
      <root>
        <mxCell id="0" />
        <mxCell id="1" parent="0" />
        <mxCell id="JyDE84X1tgH7piTENRlM-11" value="monolithic-db-loadbalancer-container" style="rounded=1;whiteSpace=wrap;html=1;verticalAlign=top;" vertex="1" parent="1">
          <mxGeometry x="162.68" y="312" width="437.32" height="260" as="geometry" />
        </mxCell>
        <mxCell id="JyDE84X1tgH7piTENRlM-10" value="monolithic_app_loadbalancer_container_1" style="rounded=1;whiteSpace=wrap;html=1;verticalAlign=top;" vertex="1" parent="1">
          <mxGeometry x="-350" y="-80" width="440" height="260" as="geometry" />
        </mxCell>
        <mxCell id="JyDE84X1tgH7piTENRlM-1" value="DATABASE" style="shape=cylinder3;whiteSpace=wrap;html=1;boundedLbl=1;backgroundOutline=1;size=15;fillColor=#d80073;fontColor=#ffffff;strokeColor=#A50040;" vertex="1" parent="1">
          <mxGeometry x="295" y="390" width="170" height="100" as="geometry" />
        </mxCell>
        <mxCell id="JyDE84X1tgH7piTENRlM-2" value="APPLICATION" style="rounded=0;whiteSpace=wrap;html=1;horizontal=1;verticalAlign=top;fillColor=#6a00ff;fontColor=#ffffff;strokeColor=#3700CC;" vertex="1" parent="1">
          <mxGeometry x="-269" y="-20" width="280" height="190" as="geometry" />
        </mxCell>
        <mxCell id="JyDE84X1tgH7piTENRlM-3" value="VIEW" style="rounded=0;whiteSpace=wrap;html=1;" vertex="1" parent="1">
          <mxGeometry x="-259" y="20" width="120" height="60" as="geometry" />
        </mxCell>
        <mxCell id="JyDE84X1tgH7piTENRlM-4" value="TEMPLATE" style="rounded=0;whiteSpace=wrap;html=1;" vertex="1" parent="1">
          <mxGeometry x="-119" y="20" width="120" height="60" as="geometry" />
        </mxCell>
        <mxCell id="JyDE84X1tgH7piTENRlM-5" value="MODEL" style="rounded=0;whiteSpace=wrap;html=1;" vertex="1" parent="1">
          <mxGeometry x="-189" y="100" width="120" height="60" as="geometry" />
        </mxCell>
        <mxCell id="JyDE84X1tgH7piTENRlM-6" value="" style="shape=flexArrow;endArrow=classic;startArrow=classic;html=1;rounded=0;fillColor=#fa6800;strokeColor=#C73500;" edge="1" parent="1">
          <mxGeometry width="100" height="100" relative="1" as="geometry">
            <mxPoint x="379.5" y="280" as="sourcePoint" />
            <mxPoint x="379.5" y="209" as="targetPoint" />
          </mxGeometry>
        </mxCell>
        <mxCell id="JyDE84X1tgH7piTENRlM-8" value="" style="shape=image;verticalLabelPosition=bottom;labelBackgroundColor=default;verticalAlign=top;aspect=fixed;imageAspect=0;image=data:image/png,iVBORw0KGgoAAAANSUhEUgAAAU0AAACXCAMAAACm/PkLAAAAnFBMVEUJLiD///8AKxwAHAAAGwAAAAAjPDEAJhWttLAAKBimr6sADQD7/fwAIxEAGAAAFAAePTFZamMAEQAAGQDh5uR2hH4AHwl/i4ZKXVQAJhK7wr8ACwAAIQ3m6ejt7+7W2tmbpKDJzsxAVUzZ3dsySkC3vrtqeXKTnJh9iYRufHZgb2mosK2KlpGdpqLCyMUUNihFWVEYOy4sRTtRZFzV6t6ZAAAMqUlEQVR4nO2da3eqOhCGJchG5BKFih7BC15btdLW///fDohamAmaIFvda+X5WAgOLyGZmUxooyGRSCQSiUQikUgkEolEIpFIJBKJRCKRSCQSiaQeDMCz7fmnMQ6DIpcj5L8i5IlW/itoCuDPSTW1BQ4sm8+19F+gXM02ONCSat5EqlknUs06kWrWiVSzTqSadSLVrBOpZp1INetEqlknUs06kWrWiVSzTqSadcKfkZNq3qZUTePQL9KVafmblKrZMMIiUszblKspEUeqWSdSzTqRat4J0UPVcxK8pm3crSYxbD+7nNP0bY6pihh66DezFk5TDXXRx5dcwA5V1UtQVT+0dePqFYitOq5LE0zarHcuJaGjxd1+uzVMWLbfB+Vq6s0iOr6a7lOtcfhYb4+XG7amvYFq+mX3lujepIHZOaz601OLYevzvRtrNORTlBi+YwbxYPW+bm9bCdv2uv+xmTWCIBGK9VhsJ1j02sPJKGW+b/UH1OX8sZvobvy+HxfEs8rU1FftIh9FOUno6t1pNIbt5+sfF3cAEnommb23oxE8P2G878cu42EVMXyTHNb7N8YFFGUUtXbdP55beObE81dDdINRv0Fr6KG2tomYpjDVVLfgQCEWsl2jHyFDz/YuaEGGkGqd/vKt7PSszUG7dovE1xbrydUrJIwnrd9nTpy4XdJgPzPv7J9G0EP9iAVHnE6azkd09SLt4NdaY7Yr1T3PfOaU2k7jNatTM/j0T21CHXaHPPvOXXEynbFfEcRtNUk8valO9KuMyve7CbuAaTpxF0vua5xHbXd1w8ZdULl7Em3Ka85tNV2e57LXLmrydMyMpcawXW3wa6m0vex+A5izwUS0opzEj7jtua2mydXLP2xxNZWWi0wP+vzNFSU+Wk+8Cce5b9XKK4nO+Zan1KXm+Pyui6ip9MKi6TqJBForLcovZuIIVKmiJCrnCH6kLjWVjV5BTYsUbtBfiDQ+G6/xiakoE1NcTTcSN6gGNc/nC6mpbL28mAeRpooyPHZNCi2/YiMaWW5BP4Usqk3NuVtFTSXnqtpfQi0VZZEOhLrIIzjcDBqK6IIm1aamZVZSc3WevRpGR6hh4kccf9HhcqtPjNlOWSmuyKCpVFFzNIkS8M+chkBBNVuXV90RtFz5SrumuhZqs/MbAoRsB2Pe6q82m4/pvjRO51HTiqabThAcEzRaJwINfkrVnC/XH5vNpt9idKO388xA2bGMNWmte72POfirZZ3mFJ/x8MbTQyf+s2mxDnkNASir309jsxnqum77tMIK8EnNcXvguP5v4sYIwE8NDLaaK9v1fDv5+dAL3pFt1qmzGDOG4cqwq6aNbS0q/n2i+YtFaorP6Jr9QNUJIboTDvHBi1/Mgf2B20fE+3VDqqq5HAQqcH4dEH8cStSMc+3oBpnXyQwwGW7OMqanWYNGxSNJv8wGFsbA9nWJcomGtY4EpnUX29TS8i5dFTVH453q4DgCdouuzlazk//9YA8NmB2vrHeR4dbhN7R2QC87jw8GntC7+ZFRw72TcLvwhKDG+2IsXEFNfeUzh+5Kauqoc2YDBHaSrZ9cnFSmZhMNtsuCh07wsNrjftXxHGSBzHOVypkSH62Smo3/oAHHGIp8wz8rs/xdQzVHJ08nQC96o3i/eMpfliYCIRS9R33QrWqpQyLJhEJdbVdswKemBg8fm4XgWsnMWchAQzWtTE38Lu7BsEhieMaIe+B04YxuqeCMe9U0QselP6tdaz8fA1341ESxwLEZnGUuU/0JD2TpTl44HjdW8D3Gs9v1RbpfCIomlhScco+axKbmrL8sC43uUdODF9sW/UKoppLNBtg/iqFU+JQFp5rGALZEQ251NQ1qfGDnH8pSTU3sbA6KPkSJmujPY/Qa4+674YzV7R5siZ5DVTV17YvhCiNZKqqJZ08w3JeoiQaICL6LjPmtH8Jz2OBejYL8amoS8zCHDRF3qNmEP/4GMpFoRTVTE03pSxw4utDOHa+acDXIQgsvldTU9Vv98ixLRTUd6IvAPqbCNGOmCIqjt3DWTdSE9kw5Ex/Il8UJqCpqhjOutNAdaqI3dgicwhI1UTaOoVR1NaEitagZormNzR1qooD4FdREitTxphs/sEkJd6iJ/lhVTYaTjNSsPG4qaFAWV5M7/VynmhPg6aD5tWTcZISNFNrJO6eHaE6fwdSPsJqsBOIRaw4Kxup800dgFkKRp8G+GM634YiG19/UV7Aleg7CaqqM9PN82/simgtWXuuchWD4h9TMLorajZG/aSNNFpxFCjikQM9KVE1szLwXuk07vVu3NjVhUgPF28i9zy7qoYKZDgxX0H1xJzhJA7kyMG4VVdOBQchKu9xnfWri4QTkglCUlw1hOPWEQukAhh38OSQTzRhwPV5UTRhtzHLucX1qMhZgihXkJWri1HsEfEKCPBLoLpSDe34x6SquJji/kNmuT02chVSignOH1DwtQqGwUfkpjooUKfLOOaWzpiHFIgU5BdWE6djCi1SfmjgxC6o7kZqniRmvgxWfAqPiAeXsykHOVTLNzdxce1E1gTUF76JGNdHwnLDO1XKHUM1V9mN44FTec9M6QaOmMheo9mBZpWyJG2YeBynf4cKnZsHjqlFNnIVMmMxM1TYMQw8dDc7pp2Vx7E0mhy5LnXoQoaO8vnsKe41fifoDYmqaGn+hhdazmiiDmKkJsoOT/HtUo5o4/jvy9rkaLL42uyEaCM5FBmaEW7VsGuqG7muManXLFqnhZDyN61xXEw0dU81Pu3m6papZn/eetOIuLc84q4mXG1KG/e5hs2alZD+FdhMYCzGrLmqiFONpTofavO0OsWF0Zqv+Fmy9uEtNYoiZffHuA95S2CNwQfwWguWbFzVRkHbqm/DP5dylpmit20XNkrGthHehErkGw/m/zllNFzb7PPrppUkPzH1qMgoNrvHrXJTU1jGZCJZvpuGlSHnor5rwLrOkqsDIcaeaYmNUzlWj3HsmrIbYe34061ukHvWiJnwG6+ylYNWusblTzYaPQ49ycmoaMe/9zgSqDS/ofwR652XcLElR849L96rZoLi6s5R8GGHzrVsVq+f4MZo8a4wZZzV9eODs5nJPa3er2aCoHqCUQvVCyLUx5oDXM/kg5oq3e57UxF1wdb7LgHOn3v1qNtQZr9nFRQU9vjn1jn4EgiCIra75uv9JTZwT+336Jl/vrEHNhu5zztAgK0zcGza2vfv2qPtBj2MCsU5qokXBvL10wON11aFm8lsd5qsAW6EEuvMTlZsGdtBXwjY7/fI6LGsyXHf/OOcpHdmSt1c3u6gytHixebQ91TyhHdVATehWwkUvQskOdINxuwNHVKyOYc5KhqThl1nL5z1ISIOf1XoZvY3GVsp4PHqLltvdakA018ntsEA9CmwF0am6+YxG+bOs7Frr3mZhaCZVT9cyekXe4+KFVuDwD/IBSeh6h35rP3l7m0fLdm+hqR7IvOFCgfSXqf8B8yPjYS+s40MUF9t036Mu9fwUz6EmdZqhDdYE8ZLAHNfuqZSq+vdilvD9bdjJZdNr+bZetNYGwMuAw2yH2gibiammm/xAekYTDESjkqDGdmi82W33R5JOE1Onio95J3gJhFFtdoSQ9P/oEMK/taEO4KImrF7IQfT0QSQ47M/SPADkuwtlVf8+JpgG+ZfKnoCPFwRQlcgzIQZ42p/VwprHgPfRMof5p4EWOkT29z0axn55/l01jwCtKPDuBHgCrF32vKVPDwEl6yyhnbwPxcD1Nr/fPHkUYfNKb9NgKLa/P7T5S+is7PL6waO8397GZU420VCM81oORw51wRDz4W9SM/F3l18a3LSdEuLtjgL7eB8K0ZgpRbHvNdRAtv9h9DmgNBfuNojtNPt4HMK7gl4CL45YYsLK3r/PZTfJeL/efIeOaybQsNNbsrI23VeaIs/4tGRB8uvh1hb35qT5lIRRSf5LpJToURB7V2Lt+vG+Jt61f4WvVwrTTuhlGeD9Ex69iJriH9x6BMGKqafIZ0RqQ0BNvM33NbDNLl7rGLrP8D4E1OTdUvF4dG0QFW0t+V7r34Zfze6rOu4phrnIOcfj8m8J/1241exWXRR/EIZ7WSWcOs9y5DjVtAYvLmYjXSWM05TcMH5eZoZPzXnjhdOavxDPWM+eMv2caN7+irNi7e79avvDIM/970z+7XKSNnnl1YvXwlm0r5Ugva0971/pmK+A0aQL9j8xsKL1wpT9UpTjP9jYpJ8BG43G46wsZfqxMKn/sg77i5PWFlDXpZ5zLEvxuP6FkUQikUgkEolEIpFIJBKJRCKRSCQSiUQikfzr/A/HFQZtLdTbeAAAAABJRU5ErkJggg==;" vertex="1" parent="1">
          <mxGeometry x="-346.32" y="-50" width="132.32" height="60" as="geometry" />
        </mxCell>
        <mxCell id="JyDE84X1tgH7piTENRlM-9" value="" style="shape=image;verticalLabelPosition=bottom;labelBackgroundColor=default;verticalAlign=top;aspect=fixed;imageAspect=0;image=data:image/png,iVBORw0KGgoAAAANSUhEUgAAATkAAAChCAMAAACLfThZAAAA4VBMVEX///8AYYrkjgDjigAAXojjiQAAWYUAXIcAV4PyypT45MP//v1BepsAZ4/+/fjqq1qfwNAAU4Hs8vUwe5399eXmlwja6O/tuID22bDC0Nrz0KHuvICUt8nnnC/uuGnihQBtl6/pp1Hoo0fxxYevyNVunbVajqrp8PSBqL3N3OT23bv77tmqxdPC1uDR4en88uIhb5ROh6V6o7nttXfvvXnllBzxx5adtsbrr2frrE6Lqb0mdpkHbZRYiKU/g6OqydbpozuJtMgATH355s700p/yzKbqqF/rqUX12Kvnmyfwwn7cfTUmAAAPM0lEQVR4nO1de1/aPBtuaUiKUqQF+zJE6xQpBznO08T5bHPb457v/4HeJKVJSg+kDCfQXvtjik1pr9+d+5xEUfYDvftW9UPPfe/H2Dn0yggiHaqTTtt672fZKQwRUCkA0uetnDtpuJQzBDz6oNnNuZPEN6iCSbfbmSxED+ZyJ4kpUo0R/t/98GxCj7vJ8L0fahfg1gDqLH62uyrlDpjdd32m3YBVBmDKfnNnBiLcoY7rWvmkTcYXACYCR6OpTqlTn+a16fnjtf1+T7btaOkqbIkfDCdU7IAKAIK6aVx9yF3kSFiEpcDEdJ+RyoHpm0xzFzkKXajC88An1rkOKRZeHgBmufo+D7fdMIBqtoIfWa7drt4/Xk0npufmAX3Se5+n22Z8INzEuHDWaFZGnrlVr3J9t4yZrgIjlharXdM97p7af/OpdgIdqKJywt97HcodMKe52C1hjlSYGDf0Op7YGdd/65F2BCNsJVCyCWjT6ALA89xBCaBtYlWXzInV1QHVdqO/9Ew7ghkMzlfXtkM6bTiH+YwNw8CkCEHqN2gaIVNqXRGxA8kqMXMYokAoYdUQ0MOBQ1sl2k7v5MpOQAcEnDp3gkOvMEGjZzpja7l7wtHWVShqsB5Q9X/Cl1kdSt0kTz9xYA02F3/vIDMyJuvqNAmVx7EM2Nk1RUnqARR9YZVkAYCReyc+qnApx9lpxVx5TbJPIJ+wPlykgi/iB/EGtJ1TF8AzCLh0SWjTCTvPnRMP2LrqsvFBlUZi09UXZgI2duGeZS9uEQurX73l8+wQzpFqSOsu6pzAx7d8nt3BEDvD8qWaKQnEYN5JQfEEgs5wIqwJ0XXxafhM4RGqpnxsQPKhKuysvjADsJGKUij9a5MY2Dh/OVsg5YYUUdUVif71PAzDGKV00sp4viJpT2avgR0TlMJcDomR0PP5imFjL21FKScA6tWlmeD7iy4WumkK6ohrAmpv9zw7hAlSYQrq2nS+5n0TGD0SGaRwTUgoASZv9zw7hCGmzpRPvdlE0UWUybKIFko1/bowzzctcI1UM4W1tGgxLC/oYMyBCtJcT4UuD1+x4jJT8jBUQ13a2UQLqjCdlzEnMVhuI3AAFlhbIgGSWc+9YbKeKU2micAmiTo989nhkQFgWkM5Q7mNwD6JDuZpM+Sumcf9JLmJztcYpKbKJu8l8GRNn2/r0cJ1th0TF6yl64nQZbwLdghUcw3Z6ZGMSZqU6P4BB636OuO+gKyn1e8heFpn3JCY10mWy9aPSJUv84vIfAj2CINxlLTqalNNt/kH2hnMUIA590k6O0xqr2s4NHuDLlTFosLUlE6bXJMMZ8pcwT7hEYkWYqbLh6PWJNtV63soJISvdVW6dZgm9rLcO1yFgidMytDybZm0IAEzuxKxLZRv2pCutpEeOyPXr+UN7gNGwnIvbwm6fC3VJks9U/TL7hl45G55e+WAsrTq6mbavM6BvxKHBlQgTdeI+wTStVbsFbrQX+dKbWWnnKZrpE37XyftTK5r6iHfPp6TnNs/mD8kX0Skrf4AGdMM1nPcud+/ShJHZs9K1apke9smkl1hstcZRnwLUvyySCCq00mbIjKwZypcbIJlVDNmK0a6V4yxiR88xwwaIFXizW2VDUoeyNxep1hXIZf2qat0D06yLWK6EsOo/fydKjw9W1vqjBDth+vpC9fOmgMVpS2m2o9zk5QSU7ao7DiucNTfcUnWyLOybX2dCr41PMfzHKAs7VvnYg2HwBOZbp6iwlRG7yOxAqMJkdtJhor/vcUepcwd6cA1g6oWwGK3vBnlPsPfM81PGblltGZQNaplrFunVzN1XUh72AZKbSQW6JpAhbUMxWOjakCzuRO4bhJkNMcWJ8MFRbu29kb01hUAAGb35An7af22zOGTDjK895rV+YM+rxYC6Cmz1Cnf/mCpzRBHJucbe5KdQ2u2/tjHVDmXvUM7pZUYfeh2nieGqpv0rBiU2ZqiolzLi43Vm5UNiBBQ/XOxoL5en9R+YChJ3XA21/2jxFSEEIS6MfuQIYc4DDti980wrkw/9gXQNJ5n9/ftDOVM/gQtrx6hw8mXb6PseiNrwDXoTL3uZXp+rgVvl7XsRqvrw3qmW4VlKpm+Idh03+Ese3Brg25jqpqdeE1n2e2rTueq2pM3IXa7i4e03uic3soKHG7s/sl3agHv7KGYijX2+JCOiKun1yQP8Bx21MUIo7PhOvjhwY/LT0fJ+PiyPKrSL/0vBqVGPfQd/E4HyU8zBF7V9TkiPWVPTH4iG9ClNvic6WwIAPoGo+BK/0xzikVtBZy+OKjevzl2nNhBRcc5Pguyd3jM7tRY8URWxzsm0bxaFhDbEE+yk9vXeQYDQza2RK/SONW0ggRE5saXt6sHadrtzZiPOTz2/1BcxZyiVL2gFZWX1ml3lliQ2CyGtpgF2Jbv/k5C/agoxVuAuYPbotyYYoGTlIo5pVfzmkxAYMbSxtggVnXVupPQEHifjqNIjAuSvInM3TmyY/CoG39UOuYU5dqgZw8Fqq5DFKJh1dKn1rKUqhtJlda/ShPHmbuTH4OhlRbD0jKnWK0ykTtRLX3QQzSsaiMw/MSLyn7YxEaVN8Ksk7UQ4wBxWoyR4FcUFzY5NXPkiL8JDEgdZ86Y+0SARE1XZSIHntlPf75JyviWv9/xSbM/qCehQsccPgisaNrDz0b/YBmNu69ce2ofFwPTM4eBuRPaJBhzoNxiEzdxtw+B4G9oc8z1+eudyfq5FVHgjsYxww4PTtm9jwfeR2sxh+esgdjmwwJzFhO/JLU1ZFfp1Wu4Oebu2GQ9DTmucXjh5iGR7jEXZ2+ar8kcOY0Y+rpMYE65YkKX4A5PuZbjE3cDzN34cqEdSY955arxdyLdDf/Comcj1maOrMdbbFEvMjdiHkr88tgesyPw8Y2YO5MeU2LMaZ8SL2RKVPMckz9gThlNvEN2ReYWq6TUJMeEyyX2freIuZPEC+u+plvc/E+YU9wpXQQaYK7HdVhMjcNlhpU0f2eTOSw+JFYIMMeVWFyj3SP3gkeRzPWqPhKdwmt2ma9Rd4k5hbxbkLlrbl4jm/QsI0BtBHOP373j3KF5nvTVaHHqO/zu56p3ijmCIHM8PojeFqvKmKVrbyOYu/c/Sg7ImOTqYebkbevlFjHHYlIQ5ZjQ1UDen2m4tUnmTpi3Ku/PbZPM0fU+FFGOSZvbB1rV2CRzPzkLpaSRIrZJ5njSMmrxOwu8FhuCbJK5QYFhZZ7WxzbJHNm8zddkIcdkyERuUb6NYs6/X1rmxFyJdnrTDKLx8jKoh+KrrZI5upjW+yCUMeGO8mLh3kaZE/NzmlZcglMsnP66HATJ2yqZE73hpYzJiP3FT/BtlDn8esl5cVKL+d2oCHfZLplTar5kLXvD5zwLtSiyblLPYVRuVubTNe22xLnbLpkTDGjQMbHDvt6GmVOUl38LK+tYzhHzWraMOe60BR2TbiDwotg4c9jENj9rtHRaEP4FydRu/frfls1WIVAQTwqweNGBmY43YA6jQor8nz4KuPhdcMS8+eniyi2TOcV68kkST5Hl5Qd++OTbMOch0EYyHrzc3HLufIdv22RO+cbeXnBMouo7b8lcCJUzztOD551sm8z5uxmpomPC6/pCTTGCudabMadUjlhS4KtnJLaOOZ745Y7JdCnwoojKMqVlLsUStqZPlHa6rcyN2Iv5jkmP2wehdyKKOUb6edLX7itzPM7yq4tC4CU0Q20jc6JhYSM3xlylPvbvGs0cK6ouMiY2Dx/Ehq9tZO7y6wUD6yrcEHPjy4vb2683XrU7mjnl2SfAa2yaRccV28jc4aXDG0qaiw83w1zJKX6++3mmOfQmMcyxEAw949npsheFgTWOEcx1399CvAo5l0vvo00wd3jm3NCZWrlxiFcUwxx/NdJjwvu+gqcFbg9zhY9CDqXJPvVr+mOfKb9SzTpNitIJ6IZzUvn069evsxflxGnGM8e94Y5izf33XOrnXH+2sm6CNBvXsFKFz5zQHVEYCBf2efdSkQoj745YCOFndqsH2W8vfK3Ubx9+/vzoHCjHv+uxzLmsIKHaQiAbfM+kGEKtJbWsM5lLwZzQ7bSQsLHQkfNZTHoOjjl1ZxUucqxlscRntOR0PXBKSv2WKE6s5hqYvTjm6DFOnvC0mMiBpQbDqEo1d/ySdqRJz1ylzwNXX6tVGCOEOrELbHDBqXvo8y4wXzRf+MBCU2p1xQ9ngJm7q9RLmMIXrRnPnC307ccppajuCGaVsXG5jl3caIRuOQj1DAp4fb0TE8aOPzVPAn2eR3e8X/HglP9B6Nu+8NWhkLp3jo/umo2Eb6ffVnLG2NA4jqNdVpRB4b945oQUMBe5JSKimLOFZliIQDT4PRlz/65aBME5KrJO6XogiRx9tQheVRsUYgZGtNZ+8mTuhczWyin58hftLoG5UaiROrTsIbIjZygSsxKMuc8xLxtGUbCjjVQd1sUHPi+b0iM93fDiXFI918cMKj+xvoxnjkdcPszlNV7RvUw9I9y8vjnmsB8qFnEasksoMJwHceQPR/YbPa1aOK0Q5g6PTivK8W28bVUW2zmLIheq+sd0gVndxeaoMsz5eSw55rTi6ZItHFxIcqddLC3xGhzJcbdgro+Jf8CmuX7x4ybJnyMIrpWA4caw2P45ezZXIZJhLxVzmnbaDDWdVF6lljxpXyuhkf3PtxK0+5b80jkaVDzGb0gM4Xdt6WHmsMrSPaUFAPoe4WRUTX9weBOP4X3nyYxFmLl/neXi9FKp2nGOb/qht/cYiFpm59W3xR7siKGDn2fH+M6J3+34nbRNp3jxv7uPmvMf+c1u+Yhcs1T9MjEwnmqzqH66UfJgsm42Bjyc8+/7WkrCj9fGIJI1Hy8/SidLizNLpdfGgeAFFi+i73BYf+k3k76cLZUaXx4dFz6eDCJvE4JLselNJ/QQc2+FwW/uQF+MV1+fjEOen3sn/D3mlMpvnlH5LSkuWwwY0nNvh8oRp67QX339doOZiL9xNnTlYX+oi0v4vREOz5iJ1bSdpk5YIfuXjpxp8oY85/JPN554I1irMGqVuYeN/tYhvf1Lhv+200y0VSMZwBQiM6Dn+5L5aEtHrDQ0yfc8YmiH9wWIBVLzHY845JkDpvzBqlmAJHMAmbV8pgbQhmpMBp0BQWiUr4b5/otBDOe1FZjO7vdhf9T/A85WcJLG8EcTAAAAAElFTkSuQmCC;" vertex="1" parent="1">
          <mxGeometry x="203.35" y="350" width="116.65" height="60" as="geometry" />
        </mxCell>
        <mxCell id="JyDE84X1tgH7piTENRlM-12" value="" style="shape=image;verticalLabelPosition=bottom;labelBackgroundColor=default;verticalAlign=top;aspect=fixed;imageAspect=0;image=data:image/png,iVBORw0KGgoAAAANSUhEUgAAASwAAACoCAMAAABt9SM9AAABLFBMVEUIITUklu4kl/ElluwlmvRASlZJqfodL0AIITYjlvEimvg6gL0AFCQ/gbwjmfVHl9wzg8YCCw0VVooeS3EAGSoADhwnnfM5Yo4AAAAGHC89WHwAHjIKGyoAABInMkM9UmY1mOo1PEZTgKRDn+tHdqQld7xJXHI+TFgIIjMAFy0IIDkADSIAGScAEyEAAAoZJzYXMkk7ZY9TaogbK0IpPlk2bZwAEygADBYCHSoHDCIADikZN1Q/bJBDj84qRl9YgqxDoug7kNpBf7EAExFKj8cvTGgULkUfVYIyQ1c2OD40kt09U24pUnoXICZASF0iOEogMDgWJD8AHyUwRk8jZJhQj8NBR2YAGBI/idcGJC9Lqf9Gc5gXGiU9X4ZPV2ovZ5Zng5w3ndxBWIN4k6tDZS8OAAAOb0lEQVR4nO2dgX+buBXHAam2kLHsXICMQFp1pC0mpo4X23ht8Gpfksuc5Jztul2ujXe37f//H/aEDXZzubZJc0tN9L32PjIGCj8/Pb0nCaEoEolEIpFIJBKJRCKRSCQSiUQikUgkEolEIpE8IMiiRD6ym0TQt/5spay9Cu77Wr52zCm28Qy/dd8X87VjthlSUxDfc+/7ar5yzI1MLBU9lmJ9nIVYSIr1KaRYN0CKdQOkWDfA3KDSwX8u5j5mWgrju1Ksj+O+3p7zft+574v5arAydhxi7hjzskkaL7f+kLK1Fd73NX4tGEltTjJobuQftncOk+zDgUx3ZrgvsIr01I+zv7x8Rudl+mYrd/Cadr2Df3iOzH1E0RwMYmVlzf8DhA5z+DViEcXZdZzljpwHgPuIzQMEVfvj1rPMmlAq1sfiLM97MxxY//8Lvk9uK1bQGFEVd799UL7/tmI5Awxf2dX+PVzzvbEkFruJWNaBJr7CI+sBdaPe0rLccvotUul+VHQfTzJALKzNmVnWrIzevGyzrCzECub7p3ZElOa2lkoJX3aKHt8Hzk+zAgm8es5h1M6KF11jPd9ehf0yRx6IAlHihPJ55a1G93UX/yc8z/FSnICsxWtznMDIirGlOPHLeXlNCbw5fc8Tx5Pzd3pWSelhsaPTvbfffTNjI+htzIvfvD1qHGblb9Ybu3n5O8fJ9v/um104PnCPmZqJxSpRVqcLOMAYNP5E54NcmD5/uij/cauSldmblxv5F/bjPZQVcdtUlND5U94scN2PiAt4hWwWQaz8VunzR3ieDqatYT6ikzr4vDXcQ9l2tiHEMqf5GZDOnr48fvT00V+3ItMrnGkti8WWxGKfIxYVYhGzjdVcLTR+YzPGcKm+PYjcgmWLV8T6nDjrKO9hTi0rMJ/nRy2hMZ4cN4uVAN2BWO6EZa3hMrqu4WmxEqCPicU+SyyIs3z1GrFALrRt3vf93SlXxKLZbQuflbuiqz4rF6udimGMtGul0u1JsQL6K60hzYUDsTIJ9CWx1GvEco/5NWohhIsTz5M0xVMaJ6UMv9Py8/L+TiX/omJN8/J4by/fqXTqhCGc5GX1qligp66Nzwrj3wPFTTH2ynP2mo1W+Wj+wXC8rLhrOs1sn3Kr2WwtykG/348enyZXfZYQCxcoqyZR+UXKo5zlj6K0XM74Hlj60PlPN+E2vSoWRGv21LjvW7w7jO47ygSUwp8ZDNMclm/FUMLzbyD5YYsytW0bEkPEM5E0MaYBG3TmH/eKE5Ga+9eFkl8Ih+hK11Wd2dukSFFDVNOua/C/DKpjhm1e2y4bhcqkrWGWBt4V4Lf4QTLqfrdrNUlQnDqopGLdrVYgljaMI8M0i9MIZlgJ/vT93whdxW2jUAaVYxxcl/1+Ecg+K1ifTIZRvWOXpSLcLVBk9QHGwV03hohPijpaYf5815alVnfu+6Z+L5zTX+UoXwjvFNWwFHdyfY/drdGL0yHzK9xz/mkBboJdJoWK2j8grt2lh0d0u6hNocDo3mkmPT677xv6PXE26acl+FyQetK47xv6PQnKd+i0aLXIlRDEMup35bSQ6recYiY6Gc331w6O3hRQnON1s4CTZpYIA8W+C7EQQmy7sLH7nDCIDu6iPeSqXS14HRRDYc76XbSHujpsFatf9Hr6wzvoAOT8vLA54TKNTfuLtdL4bqEjrJzwbMjQF8QPmoaoXy7WtKLfxunY2u0bRJ1zOnxcvOGJ6wnDuMtuH8dzjVZbD6MOKmIiDblMmHq7LlOqIrvw8dWH9P9WY/xWxsUxPyxud9+1kL+/5vptfDzCo3OnMPOvPpOw3/G1GzWJGtcQwskgCovbM/qbhF5C+Q3axDHFdNgu4DMBn4MHbSK+QZZI/Yup11QeoFkJAhJNRgwCTF1H6DdMDCEdCfPTsH1w2u+JqaT3fdn3hrvzwwjEQKp2fRyhIx3rOmXvht2JVaRparcjNH46rY4p+42mEauY8+p0YhT+wd7PISDEjFqTdnXIGcJMYzMvhihTKUZ+fTTtnFtmqDy0aOEjOKZhRT+cTt933/4jqdcrSeVt9/3JYGJZPbPwPXy3wAtc1zFNs2cYRhQ1G42e40Je9EAbv09ACAmC2f+zp+xFJb3vy5JIJBKJ5K4hkeXdMBUmAYRgv9PlfNW45YPh6U1TPHM03H6IakUJ1dTDm43LNLephn9+gEm0VdNUtu7d6JioDlniqNjTsK7F8lUVr9/MsoyKpmsFn7N2LVKsGyDFugFSrBsgxfo4aVdLw3HEXCrygVhECdIFHkj4YUdMGASKa8J3s76sX4kVOun+6WIaYo0Ik4Qke94QNoiVAWEHt++47qp1rwZK39h5cTz5557X+NCywqjx+LgzOI6jD+8pcOLLJ4PO9604nfxxVazG+aDTVFKxgth8+uL4n3v9vjc/BYkGA0sJGtbl953jF2c/rlZ4Rjxns/JGLNDgJ/t7W0tiGeVuzaaU2aVRp7d0hHu5f1HCcEBpuO+ZV8VyjU2OfRHXBspOZ8RtRu3SsLv795lpeRVqj2Jjs17S4NSli83VCf2hPjWOE1sMcyHONTo8mYkFVTP0ujadL2NB7SrJZhAF5mBIxXoWHP7S8aGxEEvUyl75AOs6SgyFOMrIZmK4Ec6O/bYn1uN0D7GOxydjsUi6GGGz8XRlbCsk/Scc6+LKhSYI61xHwrKC4LyaTisVw6sqstH4h/lNvToVMyg1jafjiBrqxrlYAXGtthhwRbRihNGkJsaBUDpxieu06oG1mZtYQ1o6B1Onmo5W6QmMn6JNYSVwd6WSjRHlQjZhWYFRExOWNeaX3mEqFvzwZ09YGqdY6Grb70p2OqWZ7+ZihdZxgoWILCkrzq4vVnTVKOxo22IuYBLMxMLp/AnK4Z+kDO+vjmVNRC1j49HrVuuoPcRauroVWFZvBPam4uR0r9xar6aLyAytkJD+xNZVHfPtznl59z3UplysKHS8LhfHa3bbc0gr0TmYZHXQau1NL7CucjqyxMxeXbyzgNb2d8vlo/eVFXrUPK5rUBPqe6/AatzmZTcdowex+h24J2a3Y7EaXbAz8MEWxCP0pJ+AnvazcwOqlGOcjbDd9WZivfr2dcI0seh08toQz+FBfaMXA7Fj2P9xH4tfodM0hVgqYqNWalA9c2XsSnEGto60ZM1N5xWH5GUXz8SyEqYj+ySeDXYF5gRpUBFbQXMTdtDqP87jAPBLk4jMxDp762PxAArf74nGtAVmhf0zMz1D+DfrEINp1SMhFlLZyJqfIVidUUejikCTzmzii4ghL2vgwfC6OYGGCmpNGnRC/PiTeQLuDBouqwI10veyyWoOcSHcBLFUtTaEest1fFA2RURqtsG14c1eA6Jdp9E0w62uWCHqKK2G2vgs64wNV2fYMUrAfVSWXjHRnEJNwuuGMCB7kD8fERBryHU2ano+qHu16wrEgq1i2ogGkcTsIPgZNFR7ssRzOCXb7KU+ayV7CuMSiLUU6ATBpS1CB2MbGrpxnG8nSlS1da0eg8Wp9tX1t1PLms3e4rvzaX9RXejHFlBRwem2JaohP17Fx1RihnT8fDFhPSBbb3RE160RRdqzhcURpfkWqzq3jsAs/Ku3KsQSNRAiMsoHTroqt3WBdHV5aSnRoCL9YEtYFn+6kmLBz41OFpZFlK2SsCzrH+BgnsVLe5pvkab51hHEkv7g12KBDv52wsDuxmVP+KzoQtW1VKCc3LL0FRXL1xDbaOafw6AlnNWm1YVEx19+at6AaqjWrQlPY9YPzyIsS691fryEOE3Xa38Wvlv0yyO7tMy7UqlCRGuoraZYUQK/f2IEWQ9MEL2HDMXebaxD7sYWvokElxyqWiW2ahBPjqK8v4WIFzCI0IGN4tCd+GBhtHoWzNa+1YeX+bsKoOSdQda9wmIJR66hdScLBYI9kaBAqF6GFJEmcT6XNhZLPeBN1xiB57cnbra/0mgEqViqSHfM11wfc1yB8Mycwo74517Wt0O8ZoOk6c7KiuXughPWx615E+ZGkNiorG2Q3jZTddaN52NiPZE86/5Z6Ly2IZ0ZX87bBNeYTptk0UVjbfoa5JqQ1ihGDdJzvmvNz2xN36Zvk1lhsZR4BBbD+GHkmE4zelyHKIuOL4kS7nK4aTYqG03Xibx9W4U4YNMM0hCCq+NB3HQbXvykhu1KfyEWidexiGo3IqUxxSo0CRuR6TScqFXFGO8by2IFKxS8zyCtocrBDSWbJ883KyJd0Xk6Ht3YxwwiAb97+q/Dbo1B1G1XDPGyjhbnIpOut0+eTIXTV/nj5c4/42fRwNrTKDCrFHb1h/snzw+7vi+cmbUsFiGr1qVMPDAhcDTporVQwUCTDXHXgRJvIxEbYVssbYs4Q7WW6BIkzQES4ZPYH0OooKNxa1msAI6DeJ4P3KA1ZKJ3jNo2ZlQXiySaM7HS0AH+W7kHXYk3GUK4KYIgaO90yjfT5JkEJO7amvBoetrVxyqBI55CVEi/M4ZtXNXT2In5632rApU068MjccWGijg0iEtENg6Ca5oKiSXrGqnPEt0PT11y9MsvK/jC28ZZl1N1dues3lnkfcaglvaVgtlQH/z4fHPotUbpssmiI8yulpskgnifLl4dcFZletr/6Xltn4qXSMKPYPPDnghQnEOwxn87ijP45Zerwe0KQEJrr5v4EDMmo4G3qBoBCc8Oq+MSflOrT88WD8WRMHw16Q7FARfd457oNjhKSsnihaxBWCnVxIqIRDFa7cR/h0u16uGlN3t/ptct8f+YJAj++98VtCzFIf1mFMfWmmUsPyYB90Ma8Vps7Vhxww3yL4iQownb47U1uGnRg+MYO9GiaSN9Y2dHNBKwCc4AJ9ixIicg86DN2LHSgZ7eqxXU6gu4bV/U6vRhSSQSiUQikUgkEolEIpFIJBKJRCKRSCQSiUTyIf8D2Q6t/tjPttoAAAAASUVORK5CYII=;" vertex="1" parent="1">
          <mxGeometry x="11" y="-110" width="107.14" height="60" as="geometry" />
        </mxCell>
        <mxCell id="JyDE84X1tgH7piTENRlM-13" value="" style="shape=image;verticalLabelPosition=bottom;labelBackgroundColor=default;verticalAlign=top;aspect=fixed;imageAspect=0;image=data:image/png,iVBORw0KGgoAAAANSUhEUgAAASwAAACoCAMAAABt9SM9AAABLFBMVEUIITUklu4kl/ElluwlmvRASlZJqfodL0AIITYjlvEimvg6gL0AFCQ/gbwjmfVHl9wzg8YCCw0VVooeS3EAGSoADhwnnfM5Yo4AAAAGHC89WHwAHjIKGyoAABInMkM9UmY1mOo1PEZTgKRDn+tHdqQld7xJXHI+TFgIIjMAFy0IIDkADSIAGScAEyEAAAoZJzYXMkk7ZY9TaogbK0IpPlk2bZwAEygADBYCHSoHDCIADikZN1Q/bJBDj84qRl9YgqxDoug7kNpBf7EAExFKj8cvTGgULkUfVYIyQ1c2OD40kt09U24pUnoXICZASF0iOEogMDgWJD8AHyUwRk8jZJhQj8NBR2YAGBI/idcGJC9Lqf9Gc5gXGiU9X4ZPV2ovZ5Zng5w3ndxBWIN4k6tDZS8OAAAOb0lEQVR4nO2dgX+buBXHAam2kLHsXICMQFp1pC0mpo4X23ht8Gpfksuc5Jztul2ujXe37f//H/aEDXZzubZJc0tN9L32PjIGCj8/Pb0nCaEoEolEIpFIJBKJRCKRSCQSiUQikUgkEolEIpE8IMiiRD6ym0TQt/5spay9Cu77Wr52zCm28Qy/dd8X87VjthlSUxDfc+/7ar5yzI1MLBU9lmJ9nIVYSIr1KaRYN0CKdQOkWDfA3KDSwX8u5j5mWgrju1Ksj+O+3p7zft+574v5arAydhxi7hjzskkaL7f+kLK1Fd73NX4tGEltTjJobuQftncOk+zDgUx3ZrgvsIr01I+zv7x8Rudl+mYrd/Cadr2Df3iOzH1E0RwMYmVlzf8DhA5z+DViEcXZdZzljpwHgPuIzQMEVfvj1rPMmlAq1sfiLM97MxxY//8Lvk9uK1bQGFEVd799UL7/tmI5Awxf2dX+PVzzvbEkFruJWNaBJr7CI+sBdaPe0rLccvotUul+VHQfTzJALKzNmVnWrIzevGyzrCzECub7p3ZElOa2lkoJX3aKHt8Hzk+zAgm8es5h1M6KF11jPd9ehf0yRx6IAlHihPJ55a1G93UX/yc8z/FSnICsxWtznMDIirGlOPHLeXlNCbw5fc8Tx5Pzd3pWSelhsaPTvbfffTNjI+htzIvfvD1qHGblb9Ybu3n5O8fJ9v/um104PnCPmZqJxSpRVqcLOMAYNP5E54NcmD5/uij/cauSldmblxv5F/bjPZQVcdtUlND5U94scN2PiAt4hWwWQaz8VunzR3ieDqatYT6ikzr4vDXcQ9l2tiHEMqf5GZDOnr48fvT00V+3ItMrnGkti8WWxGKfIxYVYhGzjdVcLTR+YzPGcKm+PYjcgmWLV8T6nDjrKO9hTi0rMJ/nRy2hMZ4cN4uVAN2BWO6EZa3hMrqu4WmxEqCPicU+SyyIs3z1GrFALrRt3vf93SlXxKLZbQuflbuiqz4rF6udimGMtGul0u1JsQL6K60hzYUDsTIJ9CWx1GvEco/5NWohhIsTz5M0xVMaJ6UMv9Py8/L+TiX/omJN8/J4by/fqXTqhCGc5GX1qligp66Nzwrj3wPFTTH2ynP2mo1W+Wj+wXC8rLhrOs1sn3Kr2WwtykG/348enyZXfZYQCxcoqyZR+UXKo5zlj6K0XM74Hlj60PlPN+E2vSoWRGv21LjvW7w7jO47ygSUwp8ZDNMclm/FUMLzbyD5YYsytW0bEkPEM5E0MaYBG3TmH/eKE5Ga+9eFkl8Ih+hK11Wd2dukSFFDVNOua/C/DKpjhm1e2y4bhcqkrWGWBt4V4Lf4QTLqfrdrNUlQnDqopGLdrVYgljaMI8M0i9MIZlgJ/vT93whdxW2jUAaVYxxcl/1+Ecg+K1ifTIZRvWOXpSLcLVBk9QHGwV03hohPijpaYf5815alVnfu+6Z+L5zTX+UoXwjvFNWwFHdyfY/drdGL0yHzK9xz/mkBboJdJoWK2j8grt2lh0d0u6hNocDo3mkmPT677xv6PXE26acl+FyQetK47xv6PQnKd+i0aLXIlRDEMup35bSQ6recYiY6Gc331w6O3hRQnON1s4CTZpYIA8W+C7EQQmy7sLH7nDCIDu6iPeSqXS14HRRDYc76XbSHujpsFatf9Hr6wzvoAOT8vLA54TKNTfuLtdL4bqEjrJzwbMjQF8QPmoaoXy7WtKLfxunY2u0bRJ1zOnxcvOGJ6wnDuMtuH8dzjVZbD6MOKmIiDblMmHq7LlOqIrvw8dWH9P9WY/xWxsUxPyxud9+1kL+/5vptfDzCo3OnMPOvPpOw3/G1GzWJGtcQwskgCovbM/qbhF5C+Q3axDHFdNgu4DMBn4MHbSK+QZZI/Yup11QeoFkJAhJNRgwCTF1H6DdMDCEdCfPTsH1w2u+JqaT3fdn3hrvzwwjEQKp2fRyhIx3rOmXvht2JVaRparcjNH46rY4p+42mEauY8+p0YhT+wd7PISDEjFqTdnXIGcJMYzMvhihTKUZ+fTTtnFtmqDy0aOEjOKZhRT+cTt933/4jqdcrSeVt9/3JYGJZPbPwPXy3wAtc1zFNs2cYRhQ1G42e40Je9EAbv09ACAmC2f+zp+xFJb3vy5JIJBKJ5K4hkeXdMBUmAYRgv9PlfNW45YPh6U1TPHM03H6IakUJ1dTDm43LNLephn9+gEm0VdNUtu7d6JioDlniqNjTsK7F8lUVr9/MsoyKpmsFn7N2LVKsGyDFugFSrBsgxfo4aVdLw3HEXCrygVhECdIFHkj4YUdMGASKa8J3s76sX4kVOun+6WIaYo0Ik4Qke94QNoiVAWEHt++47qp1rwZK39h5cTz5557X+NCywqjx+LgzOI6jD+8pcOLLJ4PO9604nfxxVazG+aDTVFKxgth8+uL4n3v9vjc/BYkGA0sJGtbl953jF2c/rlZ4Rjxns/JGLNDgJ/t7W0tiGeVuzaaU2aVRp7d0hHu5f1HCcEBpuO+ZV8VyjU2OfRHXBspOZ8RtRu3SsLv795lpeRVqj2Jjs17S4NSli83VCf2hPjWOE1sMcyHONTo8mYkFVTP0ujadL2NB7SrJZhAF5mBIxXoWHP7S8aGxEEvUyl75AOs6SgyFOMrIZmK4Ec6O/bYn1uN0D7GOxydjsUi6GGGz8XRlbCsk/Scc6+LKhSYI61xHwrKC4LyaTisVw6sqstH4h/lNvToVMyg1jafjiBrqxrlYAXGtthhwRbRihNGkJsaBUDpxieu06oG1mZtYQ1o6B1Onmo5W6QmMn6JNYSVwd6WSjRHlQjZhWYFRExOWNeaX3mEqFvzwZ09YGqdY6Grb70p2OqWZ7+ZihdZxgoWILCkrzq4vVnTVKOxo22IuYBLMxMLp/AnK4Z+kDO+vjmVNRC1j49HrVuuoPcRauroVWFZvBPam4uR0r9xar6aLyAytkJD+xNZVHfPtznl59z3UplysKHS8LhfHa3bbc0gr0TmYZHXQau1NL7CucjqyxMxeXbyzgNb2d8vlo/eVFXrUPK5rUBPqe6/AatzmZTcdowex+h24J2a3Y7EaXbAz8MEWxCP0pJ+AnvazcwOqlGOcjbDd9WZivfr2dcI0seh08toQz+FBfaMXA7Fj2P9xH4tfodM0hVgqYqNWalA9c2XsSnEGto60ZM1N5xWH5GUXz8SyEqYj+ySeDXYF5gRpUBFbQXMTdtDqP87jAPBLk4jMxDp762PxAArf74nGtAVmhf0zMz1D+DfrEINp1SMhFlLZyJqfIVidUUejikCTzmzii4ghL2vgwfC6OYGGCmpNGnRC/PiTeQLuDBouqwI10veyyWoOcSHcBLFUtTaEest1fFA2RURqtsG14c1eA6Jdp9E0w62uWCHqKK2G2vgs64wNV2fYMUrAfVSWXjHRnEJNwuuGMCB7kD8fERBryHU2ano+qHu16wrEgq1i2ogGkcTsIPgZNFR7ssRzOCXb7KU+ayV7CuMSiLUU6ATBpS1CB2MbGrpxnG8nSlS1da0eg8Wp9tX1t1PLms3e4rvzaX9RXejHFlBRwem2JaohP17Fx1RihnT8fDFhPSBbb3RE160RRdqzhcURpfkWqzq3jsAs/Ku3KsQSNRAiMsoHTroqt3WBdHV5aSnRoCL9YEtYFn+6kmLBz41OFpZFlK2SsCzrH+BgnsVLe5pvkab51hHEkv7g12KBDv52wsDuxmVP+KzoQtW1VKCc3LL0FRXL1xDbaOafw6AlnNWm1YVEx19+at6AaqjWrQlPY9YPzyIsS691fryEOE3Xa38Wvlv0yyO7tMy7UqlCRGuoraZYUQK/f2IEWQ9MEL2HDMXebaxD7sYWvokElxyqWiW2ahBPjqK8v4WIFzCI0IGN4tCd+GBhtHoWzNa+1YeX+bsKoOSdQda9wmIJR66hdScLBYI9kaBAqF6GFJEmcT6XNhZLPeBN1xiB57cnbra/0mgEqViqSHfM11wfc1yB8Mycwo74517Wt0O8ZoOk6c7KiuXughPWx615E+ZGkNiorG2Q3jZTddaN52NiPZE86/5Z6Ly2IZ0ZX87bBNeYTptk0UVjbfoa5JqQ1ihGDdJzvmvNz2xN36Zvk1lhsZR4BBbD+GHkmE4zelyHKIuOL4kS7nK4aTYqG03Xibx9W4U4YNMM0hCCq+NB3HQbXvykhu1KfyEWidexiGo3IqUxxSo0CRuR6TScqFXFGO8by2IFKxS8zyCtocrBDSWbJ883KyJd0Xk6Ht3YxwwiAb97+q/Dbo1B1G1XDPGyjhbnIpOut0+eTIXTV/nj5c4/42fRwNrTKDCrFHb1h/snzw+7vi+cmbUsFiGr1qVMPDAhcDTporVQwUCTDXHXgRJvIxEbYVssbYs4Q7WW6BIkzQES4ZPYH0OooKNxa1msAI6DeJ4P3KA1ZKJ3jNo2ZlQXiySaM7HS0AH+W7kHXYk3GUK4KYIgaO90yjfT5JkEJO7amvBoetrVxyqBI55CVEi/M4ZtXNXT2In5632rApU068MjccWGijg0iEtENg6Ca5oKiSXrGqnPEt0PT11y9MsvK/jC28ZZl1N1dues3lnkfcaglvaVgtlQH/z4fHPotUbpssmiI8yulpskgnifLl4dcFZletr/6Xltn4qXSMKPYPPDnghQnEOwxn87ijP45Zerwe0KQEJrr5v4EDMmo4G3qBoBCc8Oq+MSflOrT88WD8WRMHw16Q7FARfd457oNjhKSsnihaxBWCnVxIqIRDFa7cR/h0u16uGlN3t/ptct8f+YJAj++98VtCzFIf1mFMfWmmUsPyYB90Ma8Vps7Vhxww3yL4iQownb47U1uGnRg+MYO9GiaSN9Y2dHNBKwCc4AJ9ixIicg86DN2LHSgZ7eqxXU6gu4bV/U6vRhSSQSiUQikUgkEolEIpFIJBKJRCKRSCQSiUTyIf8D2Q6t/tjPttoAAAAASUVORK5CYII=;" vertex="1" parent="1">
          <mxGeometry x="520" y="280" width="107.14" height="60" as="geometry" />
        </mxCell>
        <mxCell id="JyDE84X1tgH7piTENRlM-14" value="monolithic_app_loadbalancer_container_3" style="rounded=1;whiteSpace=wrap;html=1;verticalAlign=top;" vertex="1" parent="1">
          <mxGeometry x="680" y="-80" width="440" height="260" as="geometry" />
        </mxCell>
        <mxCell id="JyDE84X1tgH7piTENRlM-15" value="APPLICATION" style="rounded=0;whiteSpace=wrap;html=1;horizontal=1;verticalAlign=top;fillColor=#6a00ff;fontColor=#ffffff;strokeColor=#3700CC;" vertex="1" parent="1">
          <mxGeometry x="761" y="-20" width="280" height="190" as="geometry" />
        </mxCell>
        <mxCell id="JyDE84X1tgH7piTENRlM-16" value="VIEW" style="rounded=0;whiteSpace=wrap;html=1;" vertex="1" parent="1">
          <mxGeometry x="771" y="20" width="120" height="60" as="geometry" />
        </mxCell>
        <mxCell id="JyDE84X1tgH7piTENRlM-17" value="TEMPLATE" style="rounded=0;whiteSpace=wrap;html=1;" vertex="1" parent="1">
          <mxGeometry x="911" y="20" width="120" height="60" as="geometry" />
        </mxCell>
        <mxCell id="JyDE84X1tgH7piTENRlM-18" value="MODEL" style="rounded=0;whiteSpace=wrap;html=1;" vertex="1" parent="1">
          <mxGeometry x="841" y="100" width="120" height="60" as="geometry" />
        </mxCell>
        <mxCell id="JyDE84X1tgH7piTENRlM-19" value="" style="shape=image;verticalLabelPosition=bottom;labelBackgroundColor=default;verticalAlign=top;aspect=fixed;imageAspect=0;image=data:image/png,iVBORw0KGgoAAAANSUhEUgAAAU0AAACXCAMAAACm/PkLAAAAnFBMVEUJLiD///8AKxwAHAAAGwAAAAAjPDEAJhWttLAAKBimr6sADQD7/fwAIxEAGAAAFAAePTFZamMAEQAAGQDh5uR2hH4AHwl/i4ZKXVQAJhK7wr8ACwAAIQ3m6ejt7+7W2tmbpKDJzsxAVUzZ3dsySkC3vrtqeXKTnJh9iYRufHZgb2mosK2KlpGdpqLCyMUUNihFWVEYOy4sRTtRZFzV6t6ZAAAMqUlEQVR4nO2da3eqOhCGJchG5BKFih7BC15btdLW///fDohamAmaIFvda+X5WAgOLyGZmUxooyGRSCQSiUQikUgkEolEIpFIJBKJRCKRSCQSiaQeDMCz7fmnMQ6DIpcj5L8i5IlW/itoCuDPSTW1BQ4sm8+19F+gXM02ONCSat5EqlknUs06kWrWiVSzTqSadSLVrBOpZp1INetEqlknUs06kWrWiVSzTqSadcKfkZNq3qZUTePQL9KVafmblKrZMMIiUszblKspEUeqWSdSzTqRat4J0UPVcxK8pm3crSYxbD+7nNP0bY6pihh66DezFk5TDXXRx5dcwA5V1UtQVT+0dePqFYitOq5LE0zarHcuJaGjxd1+uzVMWLbfB+Vq6s0iOr6a7lOtcfhYb4+XG7amvYFq+mX3lujepIHZOaz601OLYevzvRtrNORTlBi+YwbxYPW+bm9bCdv2uv+xmTWCIBGK9VhsJ1j02sPJKGW+b/UH1OX8sZvobvy+HxfEs8rU1FftIh9FOUno6t1pNIbt5+sfF3cAEnommb23oxE8P2G878cu42EVMXyTHNb7N8YFFGUUtXbdP55beObE81dDdINRv0Fr6KG2tomYpjDVVLfgQCEWsl2jHyFDz/YuaEGGkGqd/vKt7PSszUG7dovE1xbrydUrJIwnrd9nTpy4XdJgPzPv7J9G0EP9iAVHnE6azkd09SLt4NdaY7Yr1T3PfOaU2k7jNatTM/j0T21CHXaHPPvOXXEynbFfEcRtNUk8valO9KuMyve7CbuAaTpxF0vua5xHbXd1w8ZdULl7Em3Ka85tNV2e57LXLmrydMyMpcawXW3wa6m0vex+A5izwUS0opzEj7jtua2mydXLP2xxNZWWi0wP+vzNFSU+Wk+8Cce5b9XKK4nO+Zan1KXm+Pyui6ip9MKi6TqJBForLcovZuIIVKmiJCrnCH6kLjWVjV5BTYsUbtBfiDQ+G6/xiakoE1NcTTcSN6gGNc/nC6mpbL28mAeRpooyPHZNCi2/YiMaWW5BP4Usqk3NuVtFTSXnqtpfQi0VZZEOhLrIIzjcDBqK6IIm1aamZVZSc3WevRpGR6hh4kccf9HhcqtPjNlOWSmuyKCpVFFzNIkS8M+chkBBNVuXV90RtFz5SrumuhZqs/MbAoRsB2Pe6q82m4/pvjRO51HTiqabThAcEzRaJwINfkrVnC/XH5vNpt9idKO388xA2bGMNWmte72POfirZZ3mFJ/x8MbTQyf+s2mxDnkNASir309jsxnqum77tMIK8EnNcXvguP5v4sYIwE8NDLaaK9v1fDv5+dAL3pFt1qmzGDOG4cqwq6aNbS0q/n2i+YtFaorP6Jr9QNUJIboTDvHBi1/Mgf2B20fE+3VDqqq5HAQqcH4dEH8cStSMc+3oBpnXyQwwGW7OMqanWYNGxSNJv8wGFsbA9nWJcomGtY4EpnUX29TS8i5dFTVH453q4DgCdouuzlazk//9YA8NmB2vrHeR4dbhN7R2QC87jw8GntC7+ZFRw72TcLvwhKDG+2IsXEFNfeUzh+5Kauqoc2YDBHaSrZ9cnFSmZhMNtsuCh07wsNrjftXxHGSBzHOVypkSH62Smo3/oAHHGIp8wz8rs/xdQzVHJ08nQC96o3i/eMpfliYCIRS9R33QrWqpQyLJhEJdbVdswKemBg8fm4XgWsnMWchAQzWtTE38Lu7BsEhieMaIe+B04YxuqeCMe9U0QselP6tdaz8fA1341ESxwLEZnGUuU/0JD2TpTl44HjdW8D3Gs9v1RbpfCIomlhScco+axKbmrL8sC43uUdODF9sW/UKoppLNBtg/iqFU+JQFp5rGALZEQ251NQ1qfGDnH8pSTU3sbA6KPkSJmujPY/Qa4+674YzV7R5siZ5DVTV17YvhCiNZKqqJZ08w3JeoiQaICL6LjPmtH8Jz2OBejYL8amoS8zCHDRF3qNmEP/4GMpFoRTVTE03pSxw4utDOHa+acDXIQgsvldTU9Vv98ixLRTUd6IvAPqbCNGOmCIqjt3DWTdSE9kw5Ex/Il8UJqCpqhjOutNAdaqI3dgicwhI1UTaOoVR1NaEitagZormNzR1qooD4FdREitTxphs/sEkJd6iJ/lhVTYaTjNSsPG4qaFAWV5M7/VynmhPg6aD5tWTcZISNFNrJO6eHaE6fwdSPsJqsBOIRaw4Kxup800dgFkKRp8G+GM634YiG19/UV7Aleg7CaqqM9PN82/simgtWXuuchWD4h9TMLorajZG/aSNNFpxFCjikQM9KVE1szLwXuk07vVu3NjVhUgPF28i9zy7qoYKZDgxX0H1xJzhJA7kyMG4VVdOBQchKu9xnfWri4QTkglCUlw1hOPWEQukAhh38OSQTzRhwPV5UTRhtzHLucX1qMhZgihXkJWri1HsEfEKCPBLoLpSDe34x6SquJji/kNmuT02chVSignOH1DwtQqGwUfkpjooUKfLOOaWzpiHFIgU5BdWE6djCi1SfmjgxC6o7kZqniRmvgxWfAqPiAeXsykHOVTLNzdxce1E1gTUF76JGNdHwnLDO1XKHUM1V9mN44FTec9M6QaOmMheo9mBZpWyJG2YeBynf4cKnZsHjqlFNnIVMmMxM1TYMQw8dDc7pp2Vx7E0mhy5LnXoQoaO8vnsKe41fifoDYmqaGn+hhdazmiiDmKkJsoOT/HtUo5o4/jvy9rkaLL42uyEaCM5FBmaEW7VsGuqG7muManXLFqnhZDyN61xXEw0dU81Pu3m6papZn/eetOIuLc84q4mXG1KG/e5hs2alZD+FdhMYCzGrLmqiFONpTofavO0OsWF0Zqv+Fmy9uEtNYoiZffHuA95S2CNwQfwWguWbFzVRkHbqm/DP5dylpmit20XNkrGthHehErkGw/m/zllNFzb7PPrppUkPzH1qMgoNrvHrXJTU1jGZCJZvpuGlSHnor5rwLrOkqsDIcaeaYmNUzlWj3HsmrIbYe34061ukHvWiJnwG6+ylYNWusblTzYaPQ49ycmoaMe/9zgSqDS/ofwR652XcLElR849L96rZoLi6s5R8GGHzrVsVq+f4MZo8a4wZZzV9eODs5nJPa3er2aCoHqCUQvVCyLUx5oDXM/kg5oq3e57UxF1wdb7LgHOn3v1qNtQZr9nFRQU9vjn1jn4EgiCIra75uv9JTZwT+336Jl/vrEHNhu5zztAgK0zcGza2vfv2qPtBj2MCsU5qokXBvL10wON11aFm8lsd5qsAW6EEuvMTlZsGdtBXwjY7/fI6LGsyXHf/OOcpHdmSt1c3u6gytHixebQ91TyhHdVATehWwkUvQskOdINxuwNHVKyOYc5KhqThl1nL5z1ISIOf1XoZvY3GVsp4PHqLltvdakA018ntsEA9CmwF0am6+YxG+bOs7Frr3mZhaCZVT9cyekXe4+KFVuDwD/IBSeh6h35rP3l7m0fLdm+hqR7IvOFCgfSXqf8B8yPjYS+s40MUF9t036Mu9fwUz6EmdZqhDdYE8ZLAHNfuqZSq+vdilvD9bdjJZdNr+bZetNYGwMuAw2yH2gibiammm/xAekYTDESjkqDGdmi82W33R5JOE1Onio95J3gJhFFtdoSQ9P/oEMK/taEO4KImrF7IQfT0QSQ47M/SPADkuwtlVf8+JpgG+ZfKnoCPFwRQlcgzIQZ42p/VwprHgPfRMof5p4EWOkT29z0axn55/l01jwCtKPDuBHgCrF32vKVPDwEl6yyhnbwPxcD1Nr/fPHkUYfNKb9NgKLa/P7T5S+is7PL6waO8397GZU420VCM81oORw51wRDz4W9SM/F3l18a3LSdEuLtjgL7eB8K0ZgpRbHvNdRAtv9h9DmgNBfuNojtNPt4HMK7gl4CL45YYsLK3r/PZTfJeL/efIeOaybQsNNbsrI23VeaIs/4tGRB8uvh1hb35qT5lIRRSf5LpJToURB7V2Lt+vG+Jt61f4WvVwrTTuhlGeD9Ex69iJriH9x6BMGKqafIZ0RqQ0BNvM33NbDNLl7rGLrP8D4E1OTdUvF4dG0QFW0t+V7r34Zfze6rOu4phrnIOcfj8m8J/1241exWXRR/EIZ7WSWcOs9y5DjVtAYvLmYjXSWM05TcMH5eZoZPzXnjhdOavxDPWM+eMv2caN7+irNi7e79avvDIM/970z+7XKSNnnl1YvXwlm0r5Ugva0971/pmK+A0aQL9j8xsKL1wpT9UpTjP9jYpJ8BG43G46wsZfqxMKn/sg77i5PWFlDXpZ5zLEvxuP6FkUQikUgkEolEIpFIJBKJRCKRSCQSiUQikfzr/A/HFQZtLdTbeAAAAABJRU5ErkJggg==;" vertex="1" parent="1">
          <mxGeometry x="683.6800000000001" y="-50" width="132.32" height="60" as="geometry" />
        </mxCell>
        <mxCell id="JyDE84X1tgH7piTENRlM-20" value="" style="shape=image;verticalLabelPosition=bottom;labelBackgroundColor=default;verticalAlign=top;aspect=fixed;imageAspect=0;image=data:image/png,iVBORw0KGgoAAAANSUhEUgAAASwAAACoCAMAAABt9SM9AAABLFBMVEUIITUklu4kl/ElluwlmvRASlZJqfodL0AIITYjlvEimvg6gL0AFCQ/gbwjmfVHl9wzg8YCCw0VVooeS3EAGSoADhwnnfM5Yo4AAAAGHC89WHwAHjIKGyoAABInMkM9UmY1mOo1PEZTgKRDn+tHdqQld7xJXHI+TFgIIjMAFy0IIDkADSIAGScAEyEAAAoZJzYXMkk7ZY9TaogbK0IpPlk2bZwAEygADBYCHSoHDCIADikZN1Q/bJBDj84qRl9YgqxDoug7kNpBf7EAExFKj8cvTGgULkUfVYIyQ1c2OD40kt09U24pUnoXICZASF0iOEogMDgWJD8AHyUwRk8jZJhQj8NBR2YAGBI/idcGJC9Lqf9Gc5gXGiU9X4ZPV2ovZ5Zng5w3ndxBWIN4k6tDZS8OAAAOb0lEQVR4nO2dgX+buBXHAam2kLHsXICMQFp1pC0mpo4X23ht8Gpfksuc5Jztul2ujXe37f//H/aEDXZzubZJc0tN9L32PjIGCj8/Pb0nCaEoEolEIpFIJBKJRCKRSCQSiUQikUgkEolEIpE8IMiiRD6ym0TQt/5spay9Cu77Wr52zCm28Qy/dd8X87VjthlSUxDfc+/7ar5yzI1MLBU9lmJ9nIVYSIr1KaRYN0CKdQOkWDfA3KDSwX8u5j5mWgrju1Ksj+O+3p7zft+574v5arAydhxi7hjzskkaL7f+kLK1Fd73NX4tGEltTjJobuQftncOk+zDgUx3ZrgvsIr01I+zv7x8Rudl+mYrd/Cadr2Df3iOzH1E0RwMYmVlzf8DhA5z+DViEcXZdZzljpwHgPuIzQMEVfvj1rPMmlAq1sfiLM97MxxY//8Lvk9uK1bQGFEVd799UL7/tmI5Awxf2dX+PVzzvbEkFruJWNaBJr7CI+sBdaPe0rLccvotUul+VHQfTzJALKzNmVnWrIzevGyzrCzECub7p3ZElOa2lkoJX3aKHt8Hzk+zAgm8es5h1M6KF11jPd9ehf0yRx6IAlHihPJ55a1G93UX/yc8z/FSnICsxWtznMDIirGlOPHLeXlNCbw5fc8Tx5Pzd3pWSelhsaPTvbfffTNjI+htzIvfvD1qHGblb9Ybu3n5O8fJ9v/um104PnCPmZqJxSpRVqcLOMAYNP5E54NcmD5/uij/cauSldmblxv5F/bjPZQVcdtUlND5U94scN2PiAt4hWwWQaz8VunzR3ieDqatYT6ikzr4vDXcQ9l2tiHEMqf5GZDOnr48fvT00V+3ItMrnGkti8WWxGKfIxYVYhGzjdVcLTR+YzPGcKm+PYjcgmWLV8T6nDjrKO9hTi0rMJ/nRy2hMZ4cN4uVAN2BWO6EZa3hMrqu4WmxEqCPicU+SyyIs3z1GrFALrRt3vf93SlXxKLZbQuflbuiqz4rF6udimGMtGul0u1JsQL6K60hzYUDsTIJ9CWx1GvEco/5NWohhIsTz5M0xVMaJ6UMv9Py8/L+TiX/omJN8/J4by/fqXTqhCGc5GX1qligp66Nzwrj3wPFTTH2ynP2mo1W+Wj+wXC8rLhrOs1sn3Kr2WwtykG/348enyZXfZYQCxcoqyZR+UXKo5zlj6K0XM74Hlj60PlPN+E2vSoWRGv21LjvW7w7jO47ygSUwp8ZDNMclm/FUMLzbyD5YYsytW0bEkPEM5E0MaYBG3TmH/eKE5Ga+9eFkl8Ih+hK11Wd2dukSFFDVNOua/C/DKpjhm1e2y4bhcqkrWGWBt4V4Lf4QTLqfrdrNUlQnDqopGLdrVYgljaMI8M0i9MIZlgJ/vT93whdxW2jUAaVYxxcl/1+Ecg+K1ifTIZRvWOXpSLcLVBk9QHGwV03hohPijpaYf5815alVnfu+6Z+L5zTX+UoXwjvFNWwFHdyfY/drdGL0yHzK9xz/mkBboJdJoWK2j8grt2lh0d0u6hNocDo3mkmPT677xv6PXE26acl+FyQetK47xv6PQnKd+i0aLXIlRDEMup35bSQ6recYiY6Gc331w6O3hRQnON1s4CTZpYIA8W+C7EQQmy7sLH7nDCIDu6iPeSqXS14HRRDYc76XbSHujpsFatf9Hr6wzvoAOT8vLA54TKNTfuLtdL4bqEjrJzwbMjQF8QPmoaoXy7WtKLfxunY2u0bRJ1zOnxcvOGJ6wnDuMtuH8dzjVZbD6MOKmIiDblMmHq7LlOqIrvw8dWH9P9WY/xWxsUxPyxud9+1kL+/5vptfDzCo3OnMPOvPpOw3/G1GzWJGtcQwskgCovbM/qbhF5C+Q3axDHFdNgu4DMBn4MHbSK+QZZI/Yup11QeoFkJAhJNRgwCTF1H6DdMDCEdCfPTsH1w2u+JqaT3fdn3hrvzwwjEQKp2fRyhIx3rOmXvht2JVaRparcjNH46rY4p+42mEauY8+p0YhT+wd7PISDEjFqTdnXIGcJMYzMvhihTKUZ+fTTtnFtmqDy0aOEjOKZhRT+cTt933/4jqdcrSeVt9/3JYGJZPbPwPXy3wAtc1zFNs2cYRhQ1G42e40Je9EAbv09ACAmC2f+zp+xFJb3vy5JIJBKJ5K4hkeXdMBUmAYRgv9PlfNW45YPh6U1TPHM03H6IakUJ1dTDm43LNLephn9+gEm0VdNUtu7d6JioDlniqNjTsK7F8lUVr9/MsoyKpmsFn7N2LVKsGyDFugFSrBsgxfo4aVdLw3HEXCrygVhECdIFHkj4YUdMGASKa8J3s76sX4kVOun+6WIaYo0Ik4Qke94QNoiVAWEHt++47qp1rwZK39h5cTz5557X+NCywqjx+LgzOI6jD+8pcOLLJ4PO9604nfxxVazG+aDTVFKxgth8+uL4n3v9vjc/BYkGA0sJGtbl953jF2c/rlZ4Rjxns/JGLNDgJ/t7W0tiGeVuzaaU2aVRp7d0hHu5f1HCcEBpuO+ZV8VyjU2OfRHXBspOZ8RtRu3SsLv795lpeRVqj2Jjs17S4NSli83VCf2hPjWOE1sMcyHONTo8mYkFVTP0ujadL2NB7SrJZhAF5mBIxXoWHP7S8aGxEEvUyl75AOs6SgyFOMrIZmK4Ec6O/bYn1uN0D7GOxydjsUi6GGGz8XRlbCsk/Scc6+LKhSYI61xHwrKC4LyaTisVw6sqstH4h/lNvToVMyg1jafjiBrqxrlYAXGtthhwRbRihNGkJsaBUDpxieu06oG1mZtYQ1o6B1Onmo5W6QmMn6JNYSVwd6WSjRHlQjZhWYFRExOWNeaX3mEqFvzwZ09YGqdY6Grb70p2OqWZ7+ZihdZxgoWILCkrzq4vVnTVKOxo22IuYBLMxMLp/AnK4Z+kDO+vjmVNRC1j49HrVuuoPcRauroVWFZvBPam4uR0r9xar6aLyAytkJD+xNZVHfPtznl59z3UplysKHS8LhfHa3bbc0gr0TmYZHXQau1NL7CucjqyxMxeXbyzgNb2d8vlo/eVFXrUPK5rUBPqe6/AatzmZTcdowex+h24J2a3Y7EaXbAz8MEWxCP0pJ+AnvazcwOqlGOcjbDd9WZivfr2dcI0seh08toQz+FBfaMXA7Fj2P9xH4tfodM0hVgqYqNWalA9c2XsSnEGto60ZM1N5xWH5GUXz8SyEqYj+ySeDXYF5gRpUBFbQXMTdtDqP87jAPBLk4jMxDp762PxAArf74nGtAVmhf0zMz1D+DfrEINp1SMhFlLZyJqfIVidUUejikCTzmzii4ghL2vgwfC6OYGGCmpNGnRC/PiTeQLuDBouqwI10veyyWoOcSHcBLFUtTaEest1fFA2RURqtsG14c1eA6Jdp9E0w62uWCHqKK2G2vgs64wNV2fYMUrAfVSWXjHRnEJNwuuGMCB7kD8fERBryHU2ano+qHu16wrEgq1i2ogGkcTsIPgZNFR7ssRzOCXb7KU+ayV7CuMSiLUU6ATBpS1CB2MbGrpxnG8nSlS1da0eg8Wp9tX1t1PLms3e4rvzaX9RXejHFlBRwem2JaohP17Fx1RihnT8fDFhPSBbb3RE160RRdqzhcURpfkWqzq3jsAs/Ku3KsQSNRAiMsoHTroqt3WBdHV5aSnRoCL9YEtYFn+6kmLBz41OFpZFlK2SsCzrH+BgnsVLe5pvkab51hHEkv7g12KBDv52wsDuxmVP+KzoQtW1VKCc3LL0FRXL1xDbaOafw6AlnNWm1YVEx19+at6AaqjWrQlPY9YPzyIsS691fryEOE3Xa38Wvlv0yyO7tMy7UqlCRGuoraZYUQK/f2IEWQ9MEL2HDMXebaxD7sYWvokElxyqWiW2ahBPjqK8v4WIFzCI0IGN4tCd+GBhtHoWzNa+1YeX+bsKoOSdQda9wmIJR66hdScLBYI9kaBAqF6GFJEmcT6XNhZLPeBN1xiB57cnbra/0mgEqViqSHfM11wfc1yB8Mycwo74517Wt0O8ZoOk6c7KiuXughPWx615E+ZGkNiorG2Q3jZTddaN52NiPZE86/5Z6Ly2IZ0ZX87bBNeYTptk0UVjbfoa5JqQ1ihGDdJzvmvNz2xN36Zvk1lhsZR4BBbD+GHkmE4zelyHKIuOL4kS7nK4aTYqG03Xibx9W4U4YNMM0hCCq+NB3HQbXvykhu1KfyEWidexiGo3IqUxxSo0CRuR6TScqFXFGO8by2IFKxS8zyCtocrBDSWbJ883KyJd0Xk6Ht3YxwwiAb97+q/Dbo1B1G1XDPGyjhbnIpOut0+eTIXTV/nj5c4/42fRwNrTKDCrFHb1h/snzw+7vi+cmbUsFiGr1qVMPDAhcDTporVQwUCTDXHXgRJvIxEbYVssbYs4Q7WW6BIkzQES4ZPYH0OooKNxa1msAI6DeJ4P3KA1ZKJ3jNo2ZlQXiySaM7HS0AH+W7kHXYk3GUK4KYIgaO90yjfT5JkEJO7amvBoetrVxyqBI55CVEi/M4ZtXNXT2In5632rApU068MjccWGijg0iEtENg6Ca5oKiSXrGqnPEt0PT11y9MsvK/jC28ZZl1N1dues3lnkfcaglvaVgtlQH/z4fHPotUbpssmiI8yulpskgnifLl4dcFZletr/6Xltn4qXSMKPYPPDnghQnEOwxn87ijP45Zerwe0KQEJrr5v4EDMmo4G3qBoBCc8Oq+MSflOrT88WD8WRMHw16Q7FARfd457oNjhKSsnihaxBWCnVxIqIRDFa7cR/h0u16uGlN3t/ptct8f+YJAj++98VtCzFIf1mFMfWmmUsPyYB90Ma8Vps7Vhxww3yL4iQownb47U1uGnRg+MYO9GiaSN9Y2dHNBKwCc4AJ9ixIicg86DN2LHSgZ7eqxXU6gu4bV/U6vRhSSQSiUQikUgkEolEIpFIJBKJRCKRSCQSiUTyIf8D2Q6t/tjPttoAAAAASUVORK5CYII=;" vertex="1" parent="1">
          <mxGeometry x="1041" y="-110" width="107.14" height="60" as="geometry" />
        </mxCell>
        <mxCell id="JyDE84X1tgH7piTENRlM-21" value="monolithic_app_loadbalancer_container_2" style="rounded=1;whiteSpace=wrap;html=1;verticalAlign=top;" vertex="1" parent="1">
          <mxGeometry x="162.68" y="-80" width="440" height="260" as="geometry" />
        </mxCell>
        <mxCell id="JyDE84X1tgH7piTENRlM-22" value="APPLICATION" style="rounded=0;whiteSpace=wrap;html=1;horizontal=1;verticalAlign=top;fillColor=#6a00ff;fontColor=#ffffff;strokeColor=#3700CC;" vertex="1" parent="1">
          <mxGeometry x="243.68" y="-20" width="280" height="190" as="geometry" />
        </mxCell>
        <mxCell id="JyDE84X1tgH7piTENRlM-23" value="VIEW" style="rounded=0;whiteSpace=wrap;html=1;" vertex="1" parent="1">
          <mxGeometry x="253.68" y="20" width="120" height="60" as="geometry" />
        </mxCell>
        <mxCell id="JyDE84X1tgH7piTENRlM-24" value="TEMPLATE" style="rounded=0;whiteSpace=wrap;html=1;" vertex="1" parent="1">
          <mxGeometry x="393.68" y="20" width="120" height="60" as="geometry" />
        </mxCell>
        <mxCell id="JyDE84X1tgH7piTENRlM-25" value="MODEL" style="rounded=0;whiteSpace=wrap;html=1;" vertex="1" parent="1">
          <mxGeometry x="323.68" y="100" width="120" height="60" as="geometry" />
        </mxCell>
        <mxCell id="JyDE84X1tgH7piTENRlM-26" value="" style="shape=image;verticalLabelPosition=bottom;labelBackgroundColor=default;verticalAlign=top;aspect=fixed;imageAspect=0;image=data:image/png,iVBORw0KGgoAAAANSUhEUgAAAU0AAACXCAMAAACm/PkLAAAAnFBMVEUJLiD///8AKxwAHAAAGwAAAAAjPDEAJhWttLAAKBimr6sADQD7/fwAIxEAGAAAFAAePTFZamMAEQAAGQDh5uR2hH4AHwl/i4ZKXVQAJhK7wr8ACwAAIQ3m6ejt7+7W2tmbpKDJzsxAVUzZ3dsySkC3vrtqeXKTnJh9iYRufHZgb2mosK2KlpGdpqLCyMUUNihFWVEYOy4sRTtRZFzV6t6ZAAAMqUlEQVR4nO2da3eqOhCGJchG5BKFih7BC15btdLW///fDohamAmaIFvda+X5WAgOLyGZmUxooyGRSCQSiUQikUgkEolEIpFIJBKJRCKRSCQSiaQeDMCz7fmnMQ6DIpcj5L8i5IlW/itoCuDPSTW1BQ4sm8+19F+gXM02ONCSat5EqlknUs06kWrWiVSzTqSadSLVrBOpZp1INetEqlknUs06kWrWiVSzTqSadcKfkZNq3qZUTePQL9KVafmblKrZMMIiUszblKspEUeqWSdSzTqRat4J0UPVcxK8pm3crSYxbD+7nNP0bY6pihh66DezFk5TDXXRx5dcwA5V1UtQVT+0dePqFYitOq5LE0zarHcuJaGjxd1+uzVMWLbfB+Vq6s0iOr6a7lOtcfhYb4+XG7amvYFq+mX3lujepIHZOaz601OLYevzvRtrNORTlBi+YwbxYPW+bm9bCdv2uv+xmTWCIBGK9VhsJ1j02sPJKGW+b/UH1OX8sZvobvy+HxfEs8rU1FftIh9FOUno6t1pNIbt5+sfF3cAEnommb23oxE8P2G878cu42EVMXyTHNb7N8YFFGUUtXbdP55beObE81dDdINRv0Fr6KG2tomYpjDVVLfgQCEWsl2jHyFDz/YuaEGGkGqd/vKt7PSszUG7dovE1xbrydUrJIwnrd9nTpy4XdJgPzPv7J9G0EP9iAVHnE6azkd09SLt4NdaY7Yr1T3PfOaU2k7jNatTM/j0T21CHXaHPPvOXXEynbFfEcRtNUk8valO9KuMyve7CbuAaTpxF0vua5xHbXd1w8ZdULl7Em3Ka85tNV2e57LXLmrydMyMpcawXW3wa6m0vex+A5izwUS0opzEj7jtua2mydXLP2xxNZWWi0wP+vzNFSU+Wk+8Cce5b9XKK4nO+Zan1KXm+Pyui6ip9MKi6TqJBForLcovZuIIVKmiJCrnCH6kLjWVjV5BTYsUbtBfiDQ+G6/xiakoE1NcTTcSN6gGNc/nC6mpbL28mAeRpooyPHZNCi2/YiMaWW5BP4Usqk3NuVtFTSXnqtpfQi0VZZEOhLrIIzjcDBqK6IIm1aamZVZSc3WevRpGR6hh4kccf9HhcqtPjNlOWSmuyKCpVFFzNIkS8M+chkBBNVuXV90RtFz5SrumuhZqs/MbAoRsB2Pe6q82m4/pvjRO51HTiqabThAcEzRaJwINfkrVnC/XH5vNpt9idKO388xA2bGMNWmte72POfirZZ3mFJ/x8MbTQyf+s2mxDnkNASir309jsxnqum77tMIK8EnNcXvguP5v4sYIwE8NDLaaK9v1fDv5+dAL3pFt1qmzGDOG4cqwq6aNbS0q/n2i+YtFaorP6Jr9QNUJIboTDvHBi1/Mgf2B20fE+3VDqqq5HAQqcH4dEH8cStSMc+3oBpnXyQwwGW7OMqanWYNGxSNJv8wGFsbA9nWJcomGtY4EpnUX29TS8i5dFTVH453q4DgCdouuzlazk//9YA8NmB2vrHeR4dbhN7R2QC87jw8GntC7+ZFRw72TcLvwhKDG+2IsXEFNfeUzh+5Kauqoc2YDBHaSrZ9cnFSmZhMNtsuCh07wsNrjftXxHGSBzHOVypkSH62Smo3/oAHHGIp8wz8rs/xdQzVHJ08nQC96o3i/eMpfliYCIRS9R33QrWqpQyLJhEJdbVdswKemBg8fm4XgWsnMWchAQzWtTE38Lu7BsEhieMaIe+B04YxuqeCMe9U0QselP6tdaz8fA1341ESxwLEZnGUuU/0JD2TpTl44HjdW8D3Gs9v1RbpfCIomlhScco+axKbmrL8sC43uUdODF9sW/UKoppLNBtg/iqFU+JQFp5rGALZEQ251NQ1qfGDnH8pSTU3sbA6KPkSJmujPY/Qa4+674YzV7R5siZ5DVTV17YvhCiNZKqqJZ08w3JeoiQaICL6LjPmtH8Jz2OBejYL8amoS8zCHDRF3qNmEP/4GMpFoRTVTE03pSxw4utDOHa+acDXIQgsvldTU9Vv98ixLRTUd6IvAPqbCNGOmCIqjt3DWTdSE9kw5Ex/Il8UJqCpqhjOutNAdaqI3dgicwhI1UTaOoVR1NaEitagZormNzR1qooD4FdREitTxphs/sEkJd6iJ/lhVTYaTjNSsPG4qaFAWV5M7/VynmhPg6aD5tWTcZISNFNrJO6eHaE6fwdSPsJqsBOIRaw4Kxup800dgFkKRp8G+GM634YiG19/UV7Aleg7CaqqM9PN82/simgtWXuuchWD4h9TMLorajZG/aSNNFpxFCjikQM9KVE1szLwXuk07vVu3NjVhUgPF28i9zy7qoYKZDgxX0H1xJzhJA7kyMG4VVdOBQchKu9xnfWri4QTkglCUlw1hOPWEQukAhh38OSQTzRhwPV5UTRhtzHLucX1qMhZgihXkJWri1HsEfEKCPBLoLpSDe34x6SquJji/kNmuT02chVSignOH1DwtQqGwUfkpjooUKfLOOaWzpiHFIgU5BdWE6djCi1SfmjgxC6o7kZqniRmvgxWfAqPiAeXsykHOVTLNzdxce1E1gTUF76JGNdHwnLDO1XKHUM1V9mN44FTec9M6QaOmMheo9mBZpWyJG2YeBynf4cKnZsHjqlFNnIVMmMxM1TYMQw8dDc7pp2Vx7E0mhy5LnXoQoaO8vnsKe41fifoDYmqaGn+hhdazmiiDmKkJsoOT/HtUo5o4/jvy9rkaLL42uyEaCM5FBmaEW7VsGuqG7muManXLFqnhZDyN61xXEw0dU81Pu3m6papZn/eetOIuLc84q4mXG1KG/e5hs2alZD+FdhMYCzGrLmqiFONpTofavO0OsWF0Zqv+Fmy9uEtNYoiZffHuA95S2CNwQfwWguWbFzVRkHbqm/DP5dylpmit20XNkrGthHehErkGw/m/zllNFzb7PPrppUkPzH1qMgoNrvHrXJTU1jGZCJZvpuGlSHnor5rwLrOkqsDIcaeaYmNUzlWj3HsmrIbYe34061ukHvWiJnwG6+ylYNWusblTzYaPQ49ycmoaMe/9zgSqDS/ofwR652XcLElR849L96rZoLi6s5R8GGHzrVsVq+f4MZo8a4wZZzV9eODs5nJPa3er2aCoHqCUQvVCyLUx5oDXM/kg5oq3e57UxF1wdb7LgHOn3v1qNtQZr9nFRQU9vjn1jn4EgiCIra75uv9JTZwT+336Jl/vrEHNhu5zztAgK0zcGza2vfv2qPtBj2MCsU5qokXBvL10wON11aFm8lsd5qsAW6EEuvMTlZsGdtBXwjY7/fI6LGsyXHf/OOcpHdmSt1c3u6gytHixebQ91TyhHdVATehWwkUvQskOdINxuwNHVKyOYc5KhqThl1nL5z1ISIOf1XoZvY3GVsp4PHqLltvdakA018ntsEA9CmwF0am6+YxG+bOs7Frr3mZhaCZVT9cyekXe4+KFVuDwD/IBSeh6h35rP3l7m0fLdm+hqR7IvOFCgfSXqf8B8yPjYS+s40MUF9t036Mu9fwUz6EmdZqhDdYE8ZLAHNfuqZSq+vdilvD9bdjJZdNr+bZetNYGwMuAw2yH2gibiammm/xAekYTDESjkqDGdmi82W33R5JOE1Onio95J3gJhFFtdoSQ9P/oEMK/taEO4KImrF7IQfT0QSQ47M/SPADkuwtlVf8+JpgG+ZfKnoCPFwRQlcgzIQZ42p/VwprHgPfRMof5p4EWOkT29z0axn55/l01jwCtKPDuBHgCrF32vKVPDwEl6yyhnbwPxcD1Nr/fPHkUYfNKb9NgKLa/P7T5S+is7PL6waO8397GZU420VCM81oORw51wRDz4W9SM/F3l18a3LSdEuLtjgL7eB8K0ZgpRbHvNdRAtv9h9DmgNBfuNojtNPt4HMK7gl4CL45YYsLK3r/PZTfJeL/efIeOaybQsNNbsrI23VeaIs/4tGRB8uvh1hb35qT5lIRRSf5LpJToURB7V2Lt+vG+Jt61f4WvVwrTTuhlGeD9Ex69iJriH9x6BMGKqafIZ0RqQ0BNvM33NbDNLl7rGLrP8D4E1OTdUvF4dG0QFW0t+V7r34Zfze6rOu4phrnIOcfj8m8J/1241exWXRR/EIZ7WSWcOs9y5DjVtAYvLmYjXSWM05TcMH5eZoZPzXnjhdOavxDPWM+eMv2caN7+irNi7e79avvDIM/970z+7XKSNnnl1YvXwlm0r5Ugva0971/pmK+A0aQL9j8xsKL1wpT9UpTjP9jYpJ8BG43G46wsZfqxMKn/sg77i5PWFlDXpZ5zLEvxuP6FkUQikUgkEolEIpFIJBKJRCKRSCQSiUQikfzr/A/HFQZtLdTbeAAAAABJRU5ErkJggg==;" vertex="1" parent="1">
          <mxGeometry x="166.36" y="-50" width="132.32" height="60" as="geometry" />
        </mxCell>
        <mxCell id="JyDE84X1tgH7piTENRlM-27" value="" style="shape=image;verticalLabelPosition=bottom;labelBackgroundColor=default;verticalAlign=top;aspect=fixed;imageAspect=0;image=data:image/png,iVBORw0KGgoAAAANSUhEUgAAASwAAACoCAMAAABt9SM9AAABLFBMVEUIITUklu4kl/ElluwlmvRASlZJqfodL0AIITYjlvEimvg6gL0AFCQ/gbwjmfVHl9wzg8YCCw0VVooeS3EAGSoADhwnnfM5Yo4AAAAGHC89WHwAHjIKGyoAABInMkM9UmY1mOo1PEZTgKRDn+tHdqQld7xJXHI+TFgIIjMAFy0IIDkADSIAGScAEyEAAAoZJzYXMkk7ZY9TaogbK0IpPlk2bZwAEygADBYCHSoHDCIADikZN1Q/bJBDj84qRl9YgqxDoug7kNpBf7EAExFKj8cvTGgULkUfVYIyQ1c2OD40kt09U24pUnoXICZASF0iOEogMDgWJD8AHyUwRk8jZJhQj8NBR2YAGBI/idcGJC9Lqf9Gc5gXGiU9X4ZPV2ovZ5Zng5w3ndxBWIN4k6tDZS8OAAAOb0lEQVR4nO2dgX+buBXHAam2kLHsXICMQFp1pC0mpo4X23ht8Gpfksuc5Jztul2ujXe37f//H/aEDXZzubZJc0tN9L32PjIGCj8/Pb0nCaEoEolEIpFIJBKJRCKRSCQSiUQikUgkEolEIpE8IMiiRD6ym0TQt/5spay9Cu77Wr52zCm28Qy/dd8X87VjthlSUxDfc+/7ar5yzI1MLBU9lmJ9nIVYSIr1KaRYN0CKdQOkWDfA3KDSwX8u5j5mWgrju1Ksj+O+3p7zft+574v5arAydhxi7hjzskkaL7f+kLK1Fd73NX4tGEltTjJobuQftncOk+zDgUx3ZrgvsIr01I+zv7x8Rudl+mYrd/Cadr2Df3iOzH1E0RwMYmVlzf8DhA5z+DViEcXZdZzljpwHgPuIzQMEVfvj1rPMmlAq1sfiLM97MxxY//8Lvk9uK1bQGFEVd799UL7/tmI5Awxf2dX+PVzzvbEkFruJWNaBJr7CI+sBdaPe0rLccvotUul+VHQfTzJALKzNmVnWrIzevGyzrCzECub7p3ZElOa2lkoJX3aKHt8Hzk+zAgm8es5h1M6KF11jPd9ehf0yRx6IAlHihPJ55a1G93UX/yc8z/FSnICsxWtznMDIirGlOPHLeXlNCbw5fc8Tx5Pzd3pWSelhsaPTvbfffTNjI+htzIvfvD1qHGblb9Ybu3n5O8fJ9v/um104PnCPmZqJxSpRVqcLOMAYNP5E54NcmD5/uij/cauSldmblxv5F/bjPZQVcdtUlND5U94scN2PiAt4hWwWQaz8VunzR3ieDqatYT6ikzr4vDXcQ9l2tiHEMqf5GZDOnr48fvT00V+3ItMrnGkti8WWxGKfIxYVYhGzjdVcLTR+YzPGcKm+PYjcgmWLV8T6nDjrKO9hTi0rMJ/nRy2hMZ4cN4uVAN2BWO6EZa3hMrqu4WmxEqCPicU+SyyIs3z1GrFALrRt3vf93SlXxKLZbQuflbuiqz4rF6udimGMtGul0u1JsQL6K60hzYUDsTIJ9CWx1GvEco/5NWohhIsTz5M0xVMaJ6UMv9Py8/L+TiX/omJN8/J4by/fqXTqhCGc5GX1qligp66Nzwrj3wPFTTH2ynP2mo1W+Wj+wXC8rLhrOs1sn3Kr2WwtykG/348enyZXfZYQCxcoqyZR+UXKo5zlj6K0XM74Hlj60PlPN+E2vSoWRGv21LjvW7w7jO47ygSUwp8ZDNMclm/FUMLzbyD5YYsytW0bEkPEM5E0MaYBG3TmH/eKE5Ga+9eFkl8Ih+hK11Wd2dukSFFDVNOua/C/DKpjhm1e2y4bhcqkrWGWBt4V4Lf4QTLqfrdrNUlQnDqopGLdrVYgljaMI8M0i9MIZlgJ/vT93whdxW2jUAaVYxxcl/1+Ecg+K1ifTIZRvWOXpSLcLVBk9QHGwV03hohPijpaYf5815alVnfu+6Z+L5zTX+UoXwjvFNWwFHdyfY/drdGL0yHzK9xz/mkBboJdJoWK2j8grt2lh0d0u6hNocDo3mkmPT677xv6PXE26acl+FyQetK47xv6PQnKd+i0aLXIlRDEMup35bSQ6recYiY6Gc331w6O3hRQnON1s4CTZpYIA8W+C7EQQmy7sLH7nDCIDu6iPeSqXS14HRRDYc76XbSHujpsFatf9Hr6wzvoAOT8vLA54TKNTfuLtdL4bqEjrJzwbMjQF8QPmoaoXy7WtKLfxunY2u0bRJ1zOnxcvOGJ6wnDuMtuH8dzjVZbD6MOKmIiDblMmHq7LlOqIrvw8dWH9P9WY/xWxsUxPyxud9+1kL+/5vptfDzCo3OnMPOvPpOw3/G1GzWJGtcQwskgCovbM/qbhF5C+Q3axDHFdNgu4DMBn4MHbSK+QZZI/Yup11QeoFkJAhJNRgwCTF1H6DdMDCEdCfPTsH1w2u+JqaT3fdn3hrvzwwjEQKp2fRyhIx3rOmXvht2JVaRparcjNH46rY4p+42mEauY8+p0YhT+wd7PISDEjFqTdnXIGcJMYzMvhihTKUZ+fTTtnFtmqDy0aOEjOKZhRT+cTt933/4jqdcrSeVt9/3JYGJZPbPwPXy3wAtc1zFNs2cYRhQ1G42e40Je9EAbv09ACAmC2f+zp+xFJb3vy5JIJBKJ5K4hkeXdMBUmAYRgv9PlfNW45YPh6U1TPHM03H6IakUJ1dTDm43LNLephn9+gEm0VdNUtu7d6JioDlniqNjTsK7F8lUVr9/MsoyKpmsFn7N2LVKsGyDFugFSrBsgxfo4aVdLw3HEXCrygVhECdIFHkj4YUdMGASKa8J3s76sX4kVOun+6WIaYo0Ik4Qke94QNoiVAWEHt++47qp1rwZK39h5cTz5557X+NCywqjx+LgzOI6jD+8pcOLLJ4PO9604nfxxVazG+aDTVFKxgth8+uL4n3v9vjc/BYkGA0sJGtbl953jF2c/rlZ4Rjxns/JGLNDgJ/t7W0tiGeVuzaaU2aVRp7d0hHu5f1HCcEBpuO+ZV8VyjU2OfRHXBspOZ8RtRu3SsLv795lpeRVqj2Jjs17S4NSli83VCf2hPjWOE1sMcyHONTo8mYkFVTP0ujadL2NB7SrJZhAF5mBIxXoWHP7S8aGxEEvUyl75AOs6SgyFOMrIZmK4Ec6O/bYn1uN0D7GOxydjsUi6GGGz8XRlbCsk/Scc6+LKhSYI61xHwrKC4LyaTisVw6sqstH4h/lNvToVMyg1jafjiBrqxrlYAXGtthhwRbRihNGkJsaBUDpxieu06oG1mZtYQ1o6B1Onmo5W6QmMn6JNYSVwd6WSjRHlQjZhWYFRExOWNeaX3mEqFvzwZ09YGqdY6Grb70p2OqWZ7+ZihdZxgoWILCkrzq4vVnTVKOxo22IuYBLMxMLp/AnK4Z+kDO+vjmVNRC1j49HrVuuoPcRauroVWFZvBPam4uR0r9xar6aLyAytkJD+xNZVHfPtznl59z3UplysKHS8LhfHa3bbc0gr0TmYZHXQau1NL7CucjqyxMxeXbyzgNb2d8vlo/eVFXrUPK5rUBPqe6/AatzmZTcdowex+h24J2a3Y7EaXbAz8MEWxCP0pJ+AnvazcwOqlGOcjbDd9WZivfr2dcI0seh08toQz+FBfaMXA7Fj2P9xH4tfodM0hVgqYqNWalA9c2XsSnEGto60ZM1N5xWH5GUXz8SyEqYj+ySeDXYF5gRpUBFbQXMTdtDqP87jAPBLk4jMxDp762PxAArf74nGtAVmhf0zMz1D+DfrEINp1SMhFlLZyJqfIVidUUejikCTzmzii4ghL2vgwfC6OYGGCmpNGnRC/PiTeQLuDBouqwI10veyyWoOcSHcBLFUtTaEest1fFA2RURqtsG14c1eA6Jdp9E0w62uWCHqKK2G2vgs64wNV2fYMUrAfVSWXjHRnEJNwuuGMCB7kD8fERBryHU2ano+qHu16wrEgq1i2ogGkcTsIPgZNFR7ssRzOCXb7KU+ayV7CuMSiLUU6ATBpS1CB2MbGrpxnG8nSlS1da0eg8Wp9tX1t1PLms3e4rvzaX9RXejHFlBRwem2JaohP17Fx1RihnT8fDFhPSBbb3RE160RRdqzhcURpfkWqzq3jsAs/Ku3KsQSNRAiMsoHTroqt3WBdHV5aSnRoCL9YEtYFn+6kmLBz41OFpZFlK2SsCzrH+BgnsVLe5pvkab51hHEkv7g12KBDv52wsDuxmVP+KzoQtW1VKCc3LL0FRXL1xDbaOafw6AlnNWm1YVEx19+at6AaqjWrQlPY9YPzyIsS691fryEOE3Xa38Wvlv0yyO7tMy7UqlCRGuoraZYUQK/f2IEWQ9MEL2HDMXebaxD7sYWvokElxyqWiW2ahBPjqK8v4WIFzCI0IGN4tCd+GBhtHoWzNa+1YeX+bsKoOSdQda9wmIJR66hdScLBYI9kaBAqF6GFJEmcT6XNhZLPeBN1xiB57cnbra/0mgEqViqSHfM11wfc1yB8Mycwo74517Wt0O8ZoOk6c7KiuXughPWx615E+ZGkNiorG2Q3jZTddaN52NiPZE86/5Z6Ly2IZ0ZX87bBNeYTptk0UVjbfoa5JqQ1ihGDdJzvmvNz2xN36Zvk1lhsZR4BBbD+GHkmE4zelyHKIuOL4kS7nK4aTYqG03Xibx9W4U4YNMM0hCCq+NB3HQbXvykhu1KfyEWidexiGo3IqUxxSo0CRuR6TScqFXFGO8by2IFKxS8zyCtocrBDSWbJ883KyJd0Xk6Ht3YxwwiAb97+q/Dbo1B1G1XDPGyjhbnIpOut0+eTIXTV/nj5c4/42fRwNrTKDCrFHb1h/snzw+7vi+cmbUsFiGr1qVMPDAhcDTporVQwUCTDXHXgRJvIxEbYVssbYs4Q7WW6BIkzQES4ZPYH0OooKNxa1msAI6DeJ4P3KA1ZKJ3jNo2ZlQXiySaM7HS0AH+W7kHXYk3GUK4KYIgaO90yjfT5JkEJO7amvBoetrVxyqBI55CVEi/M4ZtXNXT2In5632rApU068MjccWGijg0iEtENg6Ca5oKiSXrGqnPEt0PT11y9MsvK/jC28ZZl1N1dues3lnkfcaglvaVgtlQH/z4fHPotUbpssmiI8yulpskgnifLl4dcFZletr/6Xltn4qXSMKPYPPDnghQnEOwxn87ijP45Zerwe0KQEJrr5v4EDMmo4G3qBoBCc8Oq+MSflOrT88WD8WRMHw16Q7FARfd457oNjhKSsnihaxBWCnVxIqIRDFa7cR/h0u16uGlN3t/ptct8f+YJAj++98VtCzFIf1mFMfWmmUsPyYB90Ma8Vps7Vhxww3yL4iQownb47U1uGnRg+MYO9GiaSN9Y2dHNBKwCc4AJ9ixIicg86DN2LHSgZ7eqxXU6gu4bV/U6vRhSSQSiUQikUgkEolEIpFIJBKJRCKRSCQSiUTyIf8D2Q6t/tjPttoAAAAASUVORK5CYII=;" vertex="1" parent="1">
          <mxGeometry x="523.68" y="-110" width="107.14" height="60" as="geometry" />
        </mxCell>
        <mxCell id="JyDE84X1tgH7piTENRlM-28" value="django-monolithic-db-loadbalancer-container-1" style="rounded=1;whiteSpace=wrap;html=1;verticalAlign=top;" vertex="1" parent="1">
          <mxGeometry x="162.68" y="-590" width="440" height="260" as="geometry" />
        </mxCell>
        <mxCell id="JyDE84X1tgH7piTENRlM-29" value="LOAD BALANCER" style="rounded=0;whiteSpace=wrap;html=1;horizontal=1;verticalAlign=top;fillColor=#6a00ff;fontColor=#ffffff;strokeColor=#3700CC;" vertex="1" parent="1">
          <mxGeometry x="243.68" y="-530" width="280" height="150" as="geometry" />
        </mxCell>
        <mxCell id="JyDE84X1tgH7piTENRlM-30" value="" style="shape=image;verticalLabelPosition=bottom;labelBackgroundColor=default;verticalAlign=top;aspect=fixed;imageAspect=0;image=data:image/png,iVBORw0KGgoAAAANSUhEUgAAASwAAACoCAMAAABt9SM9AAABLFBMVEUIITUklu4kl/ElluwlmvRASlZJqfodL0AIITYjlvEimvg6gL0AFCQ/gbwjmfVHl9wzg8YCCw0VVooeS3EAGSoADhwnnfM5Yo4AAAAGHC89WHwAHjIKGyoAABInMkM9UmY1mOo1PEZTgKRDn+tHdqQld7xJXHI+TFgIIjMAFy0IIDkADSIAGScAEyEAAAoZJzYXMkk7ZY9TaogbK0IpPlk2bZwAEygADBYCHSoHDCIADikZN1Q/bJBDj84qRl9YgqxDoug7kNpBf7EAExFKj8cvTGgULkUfVYIyQ1c2OD40kt09U24pUnoXICZASF0iOEogMDgWJD8AHyUwRk8jZJhQj8NBR2YAGBI/idcGJC9Lqf9Gc5gXGiU9X4ZPV2ovZ5Zng5w3ndxBWIN4k6tDZS8OAAAOb0lEQVR4nO2dgX+buBXHAam2kLHsXICMQFp1pC0mpo4X23ht8Gpfksuc5Jztul2ujXe37f//H/aEDXZzubZJc0tN9L32PjIGCj8/Pb0nCaEoEolEIpFIJBKJRCKRSCQSiUQikUgkEolEIpE8IMiiRD6ym0TQt/5spay9Cu77Wr52zCm28Qy/dd8X87VjthlSUxDfc+/7ar5yzI1MLBU9lmJ9nIVYSIr1KaRYN0CKdQOkWDfA3KDSwX8u5j5mWgrju1Ksj+O+3p7zft+574v5arAydhxi7hjzskkaL7f+kLK1Fd73NX4tGEltTjJobuQftncOk+zDgUx3ZrgvsIr01I+zv7x8Rudl+mYrd/Cadr2Df3iOzH1E0RwMYmVlzf8DhA5z+DViEcXZdZzljpwHgPuIzQMEVfvj1rPMmlAq1sfiLM97MxxY//8Lvk9uK1bQGFEVd799UL7/tmI5Awxf2dX+PVzzvbEkFruJWNaBJr7CI+sBdaPe0rLccvotUul+VHQfTzJALKzNmVnWrIzevGyzrCzECub7p3ZElOa2lkoJX3aKHt8Hzk+zAgm8es5h1M6KF11jPd9ehf0yRx6IAlHihPJ55a1G93UX/yc8z/FSnICsxWtznMDIirGlOPHLeXlNCbw5fc8Tx5Pzd3pWSelhsaPTvbfffTNjI+htzIvfvD1qHGblb9Ybu3n5O8fJ9v/um104PnCPmZqJxSpRVqcLOMAYNP5E54NcmD5/uij/cauSldmblxv5F/bjPZQVcdtUlND5U94scN2PiAt4hWwWQaz8VunzR3ieDqatYT6ikzr4vDXcQ9l2tiHEMqf5GZDOnr48fvT00V+3ItMrnGkti8WWxGKfIxYVYhGzjdVcLTR+YzPGcKm+PYjcgmWLV8T6nDjrKO9hTi0rMJ/nRy2hMZ4cN4uVAN2BWO6EZa3hMrqu4WmxEqCPicU+SyyIs3z1GrFALrRt3vf93SlXxKLZbQuflbuiqz4rF6udimGMtGul0u1JsQL6K60hzYUDsTIJ9CWx1GvEco/5NWohhIsTz5M0xVMaJ6UMv9Py8/L+TiX/omJN8/J4by/fqXTqhCGc5GX1qligp66Nzwrj3wPFTTH2ynP2mo1W+Wj+wXC8rLhrOs1sn3Kr2WwtykG/348enyZXfZYQCxcoqyZR+UXKo5zlj6K0XM74Hlj60PlPN+E2vSoWRGv21LjvW7w7jO47ygSUwp8ZDNMclm/FUMLzbyD5YYsytW0bEkPEM5E0MaYBG3TmH/eKE5Ga+9eFkl8Ih+hK11Wd2dukSFFDVNOua/C/DKpjhm1e2y4bhcqkrWGWBt4V4Lf4QTLqfrdrNUlQnDqopGLdrVYgljaMI8M0i9MIZlgJ/vT93whdxW2jUAaVYxxcl/1+Ecg+K1ifTIZRvWOXpSLcLVBk9QHGwV03hohPijpaYf5815alVnfu+6Z+L5zTX+UoXwjvFNWwFHdyfY/drdGL0yHzK9xz/mkBboJdJoWK2j8grt2lh0d0u6hNocDo3mkmPT677xv6PXE26acl+FyQetK47xv6PQnKd+i0aLXIlRDEMup35bSQ6recYiY6Gc331w6O3hRQnON1s4CTZpYIA8W+C7EQQmy7sLH7nDCIDu6iPeSqXS14HRRDYc76XbSHujpsFatf9Hr6wzvoAOT8vLA54TKNTfuLtdL4bqEjrJzwbMjQF8QPmoaoXy7WtKLfxunY2u0bRJ1zOnxcvOGJ6wnDuMtuH8dzjVZbD6MOKmIiDblMmHq7LlOqIrvw8dWH9P9WY/xWxsUxPyxud9+1kL+/5vptfDzCo3OnMPOvPpOw3/G1GzWJGtcQwskgCovbM/qbhF5C+Q3axDHFdNgu4DMBn4MHbSK+QZZI/Yup11QeoFkJAhJNRgwCTF1H6DdMDCEdCfPTsH1w2u+JqaT3fdn3hrvzwwjEQKp2fRyhIx3rOmXvht2JVaRparcjNH46rY4p+42mEauY8+p0YhT+wd7PISDEjFqTdnXIGcJMYzMvhihTKUZ+fTTtnFtmqDy0aOEjOKZhRT+cTt933/4jqdcrSeVt9/3JYGJZPbPwPXy3wAtc1zFNs2cYRhQ1G42e40Je9EAbv09ACAmC2f+zp+xFJb3vy5JIJBKJ5K4hkeXdMBUmAYRgv9PlfNW45YPh6U1TPHM03H6IakUJ1dTDm43LNLephn9+gEm0VdNUtu7d6JioDlniqNjTsK7F8lUVr9/MsoyKpmsFn7N2LVKsGyDFugFSrBsgxfo4aVdLw3HEXCrygVhECdIFHkj4YUdMGASKa8J3s76sX4kVOun+6WIaYo0Ik4Qke94QNoiVAWEHt++47qp1rwZK39h5cTz5557X+NCywqjx+LgzOI6jD+8pcOLLJ4PO9604nfxxVazG+aDTVFKxgth8+uL4n3v9vjc/BYkGA0sJGtbl953jF2c/rlZ4Rjxns/JGLNDgJ/t7W0tiGeVuzaaU2aVRp7d0hHu5f1HCcEBpuO+ZV8VyjU2OfRHXBspOZ8RtRu3SsLv795lpeRVqj2Jjs17S4NSli83VCf2hPjWOE1sMcyHONTo8mYkFVTP0ujadL2NB7SrJZhAF5mBIxXoWHP7S8aGxEEvUyl75AOs6SgyFOMrIZmK4Ec6O/bYn1uN0D7GOxydjsUi6GGGz8XRlbCsk/Scc6+LKhSYI61xHwrKC4LyaTisVw6sqstH4h/lNvToVMyg1jafjiBrqxrlYAXGtthhwRbRihNGkJsaBUDpxieu06oG1mZtYQ1o6B1Onmo5W6QmMn6JNYSVwd6WSjRHlQjZhWYFRExOWNeaX3mEqFvzwZ09YGqdY6Grb70p2OqWZ7+ZihdZxgoWILCkrzq4vVnTVKOxo22IuYBLMxMLp/AnK4Z+kDO+vjmVNRC1j49HrVuuoPcRauroVWFZvBPam4uR0r9xar6aLyAytkJD+xNZVHfPtznl59z3UplysKHS8LhfHa3bbc0gr0TmYZHXQau1NL7CucjqyxMxeXbyzgNb2d8vlo/eVFXrUPK5rUBPqe6/AatzmZTcdowex+h24J2a3Y7EaXbAz8MEWxCP0pJ+AnvazcwOqlGOcjbDd9WZivfr2dcI0seh08toQz+FBfaMXA7Fj2P9xH4tfodM0hVgqYqNWalA9c2XsSnEGto60ZM1N5xWH5GUXz8SyEqYj+ySeDXYF5gRpUBFbQXMTdtDqP87jAPBLk4jMxDp762PxAArf74nGtAVmhf0zMz1D+DfrEINp1SMhFlLZyJqfIVidUUejikCTzmzii4ghL2vgwfC6OYGGCmpNGnRC/PiTeQLuDBouqwI10veyyWoOcSHcBLFUtTaEest1fFA2RURqtsG14c1eA6Jdp9E0w62uWCHqKK2G2vgs64wNV2fYMUrAfVSWXjHRnEJNwuuGMCB7kD8fERBryHU2ano+qHu16wrEgq1i2ogGkcTsIPgZNFR7ssRzOCXb7KU+ayV7CuMSiLUU6ATBpS1CB2MbGrpxnG8nSlS1da0eg8Wp9tX1t1PLms3e4rvzaX9RXejHFlBRwem2JaohP17Fx1RihnT8fDFhPSBbb3RE160RRdqzhcURpfkWqzq3jsAs/Ku3KsQSNRAiMsoHTroqt3WBdHV5aSnRoCL9YEtYFn+6kmLBz41OFpZFlK2SsCzrH+BgnsVLe5pvkab51hHEkv7g12KBDv52wsDuxmVP+KzoQtW1VKCc3LL0FRXL1xDbaOafw6AlnNWm1YVEx19+at6AaqjWrQlPY9YPzyIsS691fryEOE3Xa38Wvlv0yyO7tMy7UqlCRGuoraZYUQK/f2IEWQ9MEL2HDMXebaxD7sYWvokElxyqWiW2ahBPjqK8v4WIFzCI0IGN4tCd+GBhtHoWzNa+1YeX+bsKoOSdQda9wmIJR66hdScLBYI9kaBAqF6GFJEmcT6XNhZLPeBN1xiB57cnbra/0mgEqViqSHfM11wfc1yB8Mycwo74517Wt0O8ZoOk6c7KiuXughPWx615E+ZGkNiorG2Q3jZTddaN52NiPZE86/5Z6Ly2IZ0ZX87bBNeYTptk0UVjbfoa5JqQ1ihGDdJzvmvNz2xN36Zvk1lhsZR4BBbD+GHkmE4zelyHKIuOL4kS7nK4aTYqG03Xibx9W4U4YNMM0hCCq+NB3HQbXvykhu1KfyEWidexiGo3IqUxxSo0CRuR6TScqFXFGO8by2IFKxS8zyCtocrBDSWbJ883KyJd0Xk6Ht3YxwwiAb97+q/Dbo1B1G1XDPGyjhbnIpOut0+eTIXTV/nj5c4/42fRwNrTKDCrFHb1h/snzw+7vi+cmbUsFiGr1qVMPDAhcDTporVQwUCTDXHXgRJvIxEbYVssbYs4Q7WW6BIkzQES4ZPYH0OooKNxa1msAI6DeJ4P3KA1ZKJ3jNo2ZlQXiySaM7HS0AH+W7kHXYk3GUK4KYIgaO90yjfT5JkEJO7amvBoetrVxyqBI55CVEi/M4ZtXNXT2In5632rApU068MjccWGijg0iEtENg6Ca5oKiSXrGqnPEt0PT11y9MsvK/jC28ZZl1N1dues3lnkfcaglvaVgtlQH/z4fHPotUbpssmiI8yulpskgnifLl4dcFZletr/6Xltn4qXSMKPYPPDnghQnEOwxn87ijP45Zerwe0KQEJrr5v4EDMmo4G3qBoBCc8Oq+MSflOrT88WD8WRMHw16Q7FARfd457oNjhKSsnihaxBWCnVxIqIRDFa7cR/h0u16uGlN3t/ptct8f+YJAj++98VtCzFIf1mFMfWmmUsPyYB90Ma8Vps7Vhxww3yL4iQownb47U1uGnRg+MYO9GiaSN9Y2dHNBKwCc4AJ9ixIicg86DN2LHSgZ7eqxXU6gu4bV/U6vRhSSQSiUQikUgkEolEIpFIJBKJRCKRSCQSiUTyIf8D2Q6t/tjPttoAAAAASUVORK5CYII=;" vertex="1" parent="1">
          <mxGeometry x="523.68" y="-620" width="107.14" height="60" as="geometry" />
        </mxCell>
        <mxCell id="JyDE84X1tgH7piTENRlM-33" value="" style="shape=image;verticalLabelPosition=bottom;labelBackgroundColor=default;verticalAlign=top;aspect=fixed;imageAspect=0;image=data:image/png,iVBORw0KGgoAAAANSUhEUgAAAYQAAACCCAMAAABxTU9IAAAAclBMVEX///8Nl00AkT4AkkIAlkoAjjcAkkHo8uwAlEap0La318KgzK/R5djJ4dE1oGDD3syv1LxrtIVKp22Nw58AjTT0+fbj7+eZyKkqnVo/o2aQxKLc6+Hv9vEnnFhhr35FpWpUqnWCvZdxtop6upFarXkAiispbxSeAAAMR0lEQVR4nO2da3eCuhKGJVzEW22t1taqRdv+/7+4FRWTuWVC3euss/a8H0Ug4SHJZDIZBgOTyWQymUwmk8lkMplMJpPJZDKZTCaTyWQymUwmk8lkMplM/0nNj02z2Kz+18X4N/Q5em2aw+gz9bzpZt80m9Gb+KftUKtttJw7VxdFkS9HxMHheD6WS0LrjTtvfGia/Xra44qTl6Z5eU56Vca7Mj/Vrc7L3TzlvFnmzuflVdkIj2+xdFotG/mGb8siu6icgEPbQ1W2l3gZplRhMN+3p7nyOINHCtc+FJetk644mD9dHmf1S70qtD7f3a1qWeGeom9jp3H3SLK6ZBvRyGV6ubF4x/fuhtkyfHc/y/xWFLKVMNouyrqrwkdQ9UN5u1lRFRCQoOHH/XG6H+VJ8997zc53XGqb39uvf1rG/a3OUpRLd3z2eNZ7/8iw9K6xVDfnaemXrvBPfPavWJQb7SXnpf843avqpKH/KC91UGJ/CR5vBfuHqyZVGoRv4Y4Lv35Lv8cNy+J0FTgxgFW/U8jDI+6ou+RoCa6oGmZ/0Jta1LoeKbxd8UH+aQXrGdNSGFqDB+O8FrsNy1I9qyqAGHj4nuG7UzWaS47gJXNNU1gBcu3z3Gnu9wn6+pK0BV5zfH1RDMy2rEENK2/4GIePrJaaU6dtHfTDl4vexpMX9G7mi/glEQPds3yjhs1aM57Ad6Wk2s8wZVS+yLGv8TS4mA9hFKIunhTlH+wwg/tIQxyMU8AMTi1bUZIx2WU7xTgEIThqQMcvVFwVd8fZQyEsqKIVX9ej7wShGAWKQVYqikJDyErZVDxLA+EzdURo68p1JiEEv7ftAeGbqfj1MNVMIhQmZGX7twR5fLxIA2FBVSUqzqJ4JATyrc3uEI5kE5Yo0Ax4090TB6EQDfazFBAI80Mjbmx+IAS2ZDcIyDq63pSlQDPIao1py0HI6lhFFBCojlUjZmx+HIRtzpXsBoEzrTkKDIPMaSZdLIQsf5HPjEMYp5tGV9Fj8+MgEMbpVd04SvdHHAWOgao3EiBkjpkDXxWHkMGq1pzjDlaYHpsfBuGDt9k6CFvuDaIocAyyUuVBESBkpdiUohCQwyL/mU1npA6wxuTY/CgIR2ECebcoJ3oKLINc5+yQIGRO8gpHIcCqCnPhwSFX/PdBENine5Zn1mOHzu3OX+CCHAPdpDECoXgXzoxBgM9VbliwGNTY/BgIU8JR4xXS++dOR4FnkCuXNkQIWd3wZ0YgIPMi9D1DzeHfCU/oQyC8iQzCCa6Kwt8ZRCBk1YE9MwIBOSwi078G/J9wwgG3hddW9BBWvGHUKvQyKCg8gEEMQlayy1QyhDfUECKeTeTqw2PzI3xHgmF0qW/49yiFRzCIQshKbqFNhrBHDSG26r0G18NP8gEQJMPoUl1wQoSCwEC/TByHUNQMURHCDC1u8P1aV1/QUaCx+e8Q1tHpI3J6shTqL4mBcmHsIgQB3bNmLEsRwgfseVn/9F3InwPH5j9DGKNnlsPqYs8zT2Fx5JimMUAQ6jVqsDm9xCNBQA6LShM1Aj0FcBj5q3WEHetuBO0Hwv3PUij4A0kMEAQ3RcZi5siuRIIAHRY6Fwqa3oGx+Y8Q8HJmvkdGHLUGw1JglMoAQ5gNNqiRlZRXU4CAHBaRcKLukmURqA4ni7PgsG89qyCgdZqzo1gDIZFCMgMKwmCPeiTKlSNAgBQlh0Wg769FoKdgkr0Njn14ZdJAgBORU/NcKSEM3hMopDMgIeB3hrowD2GT5LB4hBQQ8HKmO1PUQUig0IMBDWGF1jyIJR4WAoqikZwfj1EcAvbaXZbRlRDUFPowoCGgmCJqiYeF8I3Mvj6h0kmKQsDLmVdrQwtBSaEXAwYCYVGjKBgOAvKQ1ZElugcoBmGLvHa31qmGoKLQjwEHgehCYZgtBwG54enQvIcqBgF1r11gnB7C4ClKoScDFgIRGwXcoAwE7LBQBzT3VwQCenxFfXsxEiBE20JfBjwEvEJc5MErzUBADgscOzObbF5uWk+iuk+2gyVRvzAyhBdkcrvOvE2BEGkLvRkIELZoWAhNJBoCclg44Asf7p3L8/qmPKr7no/prx8c8KtdT8BeO2/ymQRBpNCfgQBhMEOjWWAi0RCgaQRXSEdlqg/g7vHo57YYo2r4OzfSIAy+2CWhYtebgQSBcNQ6zw9HQ4CrAnUYn89FH/LyHNq9IGCvXeCQTITABzgXish5ThIEykS6H2bGBFjK2r8bNhVj8j0efSAMkdcudEilQdgLqy+cy18hEQJlInVLPAwEOCjkvhP7kBwp73s8+kDAhlERmBdJECQGf6EgQ1gRJtLtGDdPgAGo/jSBDDgXK+Z3HT0gIK+dZxi1SoEgM/gDBRkC4b/oTCQOApwo+Esz6Q3Bf2TpEA7oscGNFwkQYgwUQdSMIhBwPFBnIrG+I/j2ea6j1A1sYaxSMgTCsoD7+PQQ4gx6t4UYBGKJ5xoozEKA0S6eE/UpsTsKPR6pEGbYDYkC0NQQNAz6UohCoJZ42v/w6wkwAPI+uP5tU3MiBLxpkegutBB0DHr2SHEIxGjamkg8hBWM7u2Mwlj8GxAI0UiEgL12GXYlKiH8qDvSPhQUEFYVaSIlrDHfl5inZQIFmCQgDQJ2MThikVYHQc+gFwUFBMpE+kiLtrhHEE0Lp8WA9mEnQcBeO3JHqgpCCoM+FDQQqKCpY1LckT9je/4qS3q/DrgHCtFIgYC9dvTebA2ENAY9KKggEPa2m+CIJe8E6OgKI1HpjFPhhv1oLKoE4YtwPtKR+QoIPAOuTadS0EEg/BduD7scHwJc09VkmwAOWByJrIaQ4UAhznaMQ2AZFBm7ypNIQQkBL/GgH+So7Pjm9M/w5SVCNAAEb6ECQiAeGLPGGoXQ8AxW/PpCGgUtBLzEAxVCGIL+IJ6zBEzkCGogINhb845CoAyjVjEIQjs4Y2W3OyRR0EKIbPXK0E4dmGMnFgD2HI4IVIiGOiobacmGYUYgRBgIa20pFNQQwnxkhOCeNc1+TP7vjlin6g3B8THhMoQoA6ktSLsuQ+khECZSeCYYSPkZGyUQFk/uKekLQcpNIEJQMHhIj5QAgc4QdD8TWjPA3SGGx8NFyJwaR3tCEJ1qEoRXdg9IMMz/nUIKBMJE8s+EEOCMTdooAkZlOqthPwisYdRKgID9x8wVWQrM3AQpCYJoIuHcFnDGVrFPA+ROLQryX/0gsIZRKx4CimLrSoeoshQ0GdQGiRBEEwlDQDM2LtMDGpXp4aMXhEiKDx4C5/ClWhZLQRcLnQZBMpGIfEewhu5IhtiN4OjBZFDsA0EwjMgidhC4NJY12btxFOQ0BjclQhBMJALCEO0op4PsYGgAU4YeEGJJm3gIzIBAM+ApxD0Fg3QIvIlE5cBLzop6VvGFL9QqHULNXaoTB2FOQ+AYsBRU4dDJEFgTiYIAO3uV2NznyRBkw6gVBwHtdGnFM+AoiIlybkqHwJlIjmp4SSnjrxVle5BkCGK+pos4CGTQqcSAo9AnJacicR6T7JTeC5Ic7pWV7JML8cchaDKvAwhdV0imD440LJJCn+S0ZJ5feA5JgU6cwPStvIQM3zwEMkMHufsaCkK4za4JCDEGNIU+EFR7m1DKuox30PHB5LSkbDBBWf3JBDLDMi4PARQwHbqpDMpSk9W7+KMhKGi6IxAnrRpHqFX0MPDXU2KmZu4yl9v6dVz6flZss5UqBrB4HVmU4kPD4PTKodNUE4UQuSoRyEkNXkfnypiWs1xMTOz3baEhC6fyRan9Dk4Q23b3l6xABXUMTrWFHzRQ7aMf+iEotS4RyEkbEEDEL5vANTZRfN7+Vv43dUJD1vu+z0lVps8hsLhTqKu7hReGa7hGuwX1O2haWkfq8J4atorb1Z2mOy+lbM0zSJqxxT758NahR2/69OP8SafzNWqnbc8XHZfnrEfnb2stfCvba+z1Us7TG2jsbQjTL+ys9mV1dh64mJ8FaN6UrvU6VOVC9FTm6k98/cZe4Gl9DgcsyC9IfY6OH65yi++kz5SdNFz/1FX28woMw9flBWpe7tO+GvZdVi2HumwSzto+b9abSfpH3Vaz0Wa93oxjW+bmWikcLZN354pD2lPpqc/v3enFWIzSb/a8P714Bfpym8lkMplMJpPJZDKZTCaTyWQymUwmk8lkMplMJpPJZDKZTCaTyWT6v9c/JfW2yH0PjtoAAAAASUVORK5CYII=;" vertex="1" parent="1">
          <mxGeometry x="291.32" y="-490" width="208.92" height="70" as="geometry" />
        </mxCell>
        <mxCell id="JyDE84X1tgH7piTENRlM-34" value="" style="shape=flexArrow;endArrow=classic;startArrow=classic;html=1;rounded=0;fillColor=#fa6800;strokeColor=#C73500;" edge="1" parent="1">
          <mxGeometry width="100" height="100" relative="1" as="geometry">
            <mxPoint x="40" y="270" as="sourcePoint" />
            <mxPoint x="-1" y="219" as="targetPoint" />
          </mxGeometry>
        </mxCell>
        <mxCell id="JyDE84X1tgH7piTENRlM-35" value="" style="shape=flexArrow;endArrow=classic;startArrow=classic;html=1;rounded=0;fillColor=#fa6800;strokeColor=#C73500;" edge="1" parent="1">
          <mxGeometry width="100" height="100" relative="1" as="geometry">
            <mxPoint x="700" y="271" as="sourcePoint" />
            <mxPoint x="729" y="220" as="targetPoint" />
          </mxGeometry>
        </mxCell>
        <mxCell id="JyDE84X1tgH7piTENRlM-36" value="" style="shape=flexArrow;endArrow=classic;startArrow=classic;html=1;rounded=0;fillColor=#fa6800;strokeColor=#C73500;" edge="1" parent="1">
          <mxGeometry width="100" height="100" relative="1" as="geometry">
            <mxPoint x="380.5" y="-189" as="sourcePoint" />
            <mxPoint x="380.5" y="-260" as="targetPoint" />
          </mxGeometry>
        </mxCell>
        <mxCell id="JyDE84X1tgH7piTENRlM-37" value="" style="shape=flexArrow;endArrow=classic;startArrow=classic;html=1;rounded=0;fillColor=#fa6800;strokeColor=#C73500;" edge="1" parent="1">
          <mxGeometry width="100" height="100" relative="1" as="geometry">
            <mxPoint x="41" y="-199" as="sourcePoint" />
            <mxPoint x="80" y="-250" as="targetPoint" />
          </mxGeometry>
        </mxCell>
        <mxCell id="JyDE84X1tgH7piTENRlM-38" value="" style="shape=flexArrow;endArrow=classic;startArrow=classic;html=1;rounded=0;fillColor=#fa6800;strokeColor=#C73500;" edge="1" parent="1">
          <mxGeometry width="100" height="100" relative="1" as="geometry">
            <mxPoint x="701" y="-198" as="sourcePoint" />
            <mxPoint x="660" y="-249" as="targetPoint" />
          </mxGeometry>
        </mxCell>
      </root>
    </mxGraphModel>
  </diagram>
</mxfile>
